<?xml version="1.0" encoding="utf-8" standalone="no"?>
<!DOCTYPE svg PUBLIC "-//W3C//DTD SVG 1.1//EN"
  "http://www.w3.org/Graphics/SVG/1.1/DTD/svg11.dtd">
<svg xmlns:xlink="http://www.w3.org/1999/xlink" width="504pt" height="504pt" viewBox="0 0 504 504" xmlns="http://www.w3.org/2000/svg" version="1.1">
 <metadata>
  <rdf:RDF xmlns:dc="http://purl.org/dc/elements/1.1/" xmlns:cc="http://creativecommons.org/ns#" xmlns:rdf="http://www.w3.org/1999/02/22-rdf-syntax-ns#">
   <cc:Work>
    <dc:type rdf:resource="http://purl.org/dc/dcmitype/StillImage"/>
    <dc:date>2023-08-08T15:56:02.116819</dc:date>
    <dc:format>image/svg+xml</dc:format>
    <dc:creator>
     <cc:Agent>
      <dc:title>Matplotlib v3.7.1, https://matplotlib.org/</dc:title>
     </cc:Agent>
    </dc:creator>
   </cc:Work>
  </rdf:RDF>
 </metadata>
 <defs>
  <style type="text/css">*{stroke-linejoin: round; stroke-linecap: butt}</style>
 </defs>
 <g id="figure_1">
  <g id="patch_1">
   <path d="M 0 504 
L 504 504 
L 504 0 
L 0 0 
z
" style="fill: #ffffff"/>
  </g>
  <g id="axes_1">
   <g id="patch_2">
    <path d="M 44.66 462.04 
L 276.48 462.04 
L 276.48 25.44 
L 44.66 25.44 
z
" style="fill: #ffffff"/>
   </g>
   <g id="matplotlib.axis_1">
    <g id="xtick_1">
     <g id="line2d_1">
      <path d="M 55.197273 462.04 
L 55.197273 25.44 
" clip-path="url(#p26c2e1f42a)" style="fill: none; stroke: #b0b0b0; stroke-width: 0.8; stroke-linecap: square"/>
     </g>
     <g id="line2d_2">
      <defs>
       <path id="m76098d8836" d="M 0 0 
L 0 3.5 
" style="stroke: #000000; stroke-width: 0.8"/>
      </defs>
      <g>
       <use xlink:href="#m76098d8836" x="55.197273" y="462.04" style="stroke: #000000; stroke-width: 0.8"/>
      </g>
     </g>
     <g id="text_1">
      <!-- 0 -->
      <g transform="translate(52.016023 476.638438) scale(0.1 -0.1)">
       <defs>
        <path id="DejaVuSans-30" d="M 2034 4250 
Q 1547 4250 1301 3770 
Q 1056 3291 1056 2328 
Q 1056 1369 1301 889 
Q 1547 409 2034 409 
Q 2525 409 2770 889 
Q 3016 1369 3016 2328 
Q 3016 3291 2770 3770 
Q 2525 4250 2034 4250 
z
M 2034 4750 
Q 2819 4750 3233 4129 
Q 3647 3509 3647 2328 
Q 3647 1150 3233 529 
Q 2819 -91 2034 -91 
Q 1250 -91 836 529 
Q 422 1150 422 2328 
Q 422 3509 836 4129 
Q 1250 4750 2034 4750 
z
" transform="scale(0.015625)"/>
       </defs>
       <use xlink:href="#DejaVuSans-30"/>
      </g>
     </g>
    </g>
    <g id="xtick_2">
     <g id="line2d_3">
      <path d="M 90.333227 462.04 
L 90.333227 25.44 
" clip-path="url(#p26c2e1f42a)" style="fill: none; stroke: #b0b0b0; stroke-width: 0.8; stroke-linecap: square"/>
     </g>
     <g id="line2d_4">
      <g>
       <use xlink:href="#m76098d8836" x="90.333227" y="462.04" style="stroke: #000000; stroke-width: 0.8"/>
      </g>
     </g>
     <g id="text_2">
      <!-- 500 -->
      <g transform="translate(80.789477 476.638438) scale(0.1 -0.1)">
       <defs>
        <path id="DejaVuSans-35" d="M 691 4666 
L 3169 4666 
L 3169 4134 
L 1269 4134 
L 1269 2991 
Q 1406 3038 1543 3061 
Q 1681 3084 1819 3084 
Q 2600 3084 3056 2656 
Q 3513 2228 3513 1497 
Q 3513 744 3044 326 
Q 2575 -91 1722 -91 
Q 1428 -91 1123 -41 
Q 819 9 494 109 
L 494 744 
Q 775 591 1075 516 
Q 1375 441 1709 441 
Q 2250 441 2565 725 
Q 2881 1009 2881 1497 
Q 2881 1984 2565 2268 
Q 2250 2553 1709 2553 
Q 1456 2553 1204 2497 
Q 953 2441 691 2322 
L 691 4666 
z
" transform="scale(0.015625)"/>
       </defs>
       <use xlink:href="#DejaVuSans-35"/>
       <use xlink:href="#DejaVuSans-30" x="63.623047"/>
       <use xlink:href="#DejaVuSans-30" x="127.246094"/>
      </g>
     </g>
    </g>
    <g id="xtick_3">
     <g id="line2d_5">
      <path d="M 125.469182 462.04 
L 125.469182 25.44 
" clip-path="url(#p26c2e1f42a)" style="fill: none; stroke: #b0b0b0; stroke-width: 0.8; stroke-linecap: square"/>
     </g>
     <g id="line2d_6">
      <g>
       <use xlink:href="#m76098d8836" x="125.469182" y="462.04" style="stroke: #000000; stroke-width: 0.8"/>
      </g>
     </g>
     <g id="text_3">
      <!-- 1000 -->
      <g transform="translate(112.744182 476.638438) scale(0.1 -0.1)">
       <defs>
        <path id="DejaVuSans-31" d="M 794 531 
L 1825 531 
L 1825 4091 
L 703 3866 
L 703 4441 
L 1819 4666 
L 2450 4666 
L 2450 531 
L 3481 531 
L 3481 0 
L 794 0 
L 794 531 
z
" transform="scale(0.015625)"/>
       </defs>
       <use xlink:href="#DejaVuSans-31"/>
       <use xlink:href="#DejaVuSans-30" x="63.623047"/>
       <use xlink:href="#DejaVuSans-30" x="127.246094"/>
       <use xlink:href="#DejaVuSans-30" x="190.869141"/>
      </g>
     </g>
    </g>
    <g id="xtick_4">
     <g id="line2d_7">
      <path d="M 160.605136 462.04 
L 160.605136 25.44 
" clip-path="url(#p26c2e1f42a)" style="fill: none; stroke: #b0b0b0; stroke-width: 0.8; stroke-linecap: square"/>
     </g>
     <g id="line2d_8">
      <g>
       <use xlink:href="#m76098d8836" x="160.605136" y="462.04" style="stroke: #000000; stroke-width: 0.8"/>
      </g>
     </g>
     <g id="text_4">
      <!-- 1500 -->
      <g transform="translate(147.880136 476.638438) scale(0.1 -0.1)">
       <use xlink:href="#DejaVuSans-31"/>
       <use xlink:href="#DejaVuSans-35" x="63.623047"/>
       <use xlink:href="#DejaVuSans-30" x="127.246094"/>
       <use xlink:href="#DejaVuSans-30" x="190.869141"/>
      </g>
     </g>
    </g>
    <g id="xtick_5">
     <g id="line2d_9">
      <path d="M 195.74109 462.04 
L 195.74109 25.44 
" clip-path="url(#p26c2e1f42a)" style="fill: none; stroke: #b0b0b0; stroke-width: 0.8; stroke-linecap: square"/>
     </g>
     <g id="line2d_10">
      <g>
       <use xlink:href="#m76098d8836" x="195.74109" y="462.04" style="stroke: #000000; stroke-width: 0.8"/>
      </g>
     </g>
     <g id="text_5">
      <!-- 2000 -->
      <g transform="translate(183.01609 476.638438) scale(0.1 -0.1)">
       <defs>
        <path id="DejaVuSans-32" d="M 1228 531 
L 3431 531 
L 3431 0 
L 469 0 
L 469 531 
Q 828 903 1448 1529 
Q 2069 2156 2228 2338 
Q 2531 2678 2651 2914 
Q 2772 3150 2772 3378 
Q 2772 3750 2511 3984 
Q 2250 4219 1831 4219 
Q 1534 4219 1204 4116 
Q 875 4013 500 3803 
L 500 4441 
Q 881 4594 1212 4672 
Q 1544 4750 1819 4750 
Q 2544 4750 2975 4387 
Q 3406 4025 3406 3419 
Q 3406 3131 3298 2873 
Q 3191 2616 2906 2266 
Q 2828 2175 2409 1742 
Q 1991 1309 1228 531 
z
" transform="scale(0.015625)"/>
       </defs>
       <use xlink:href="#DejaVuSans-32"/>
       <use xlink:href="#DejaVuSans-30" x="63.623047"/>
       <use xlink:href="#DejaVuSans-30" x="127.246094"/>
       <use xlink:href="#DejaVuSans-30" x="190.869141"/>
      </g>
     </g>
    </g>
    <g id="xtick_6">
     <g id="line2d_11">
      <path d="M 230.877045 462.04 
L 230.877045 25.44 
" clip-path="url(#p26c2e1f42a)" style="fill: none; stroke: #b0b0b0; stroke-width: 0.8; stroke-linecap: square"/>
     </g>
     <g id="line2d_12">
      <g>
       <use xlink:href="#m76098d8836" x="230.877045" y="462.04" style="stroke: #000000; stroke-width: 0.8"/>
      </g>
     </g>
     <g id="text_6">
      <!-- 2500 -->
      <g transform="translate(218.152045 476.638438) scale(0.1 -0.1)">
       <use xlink:href="#DejaVuSans-32"/>
       <use xlink:href="#DejaVuSans-35" x="63.623047"/>
       <use xlink:href="#DejaVuSans-30" x="127.246094"/>
       <use xlink:href="#DejaVuSans-30" x="190.869141"/>
      </g>
     </g>
    </g>
    <g id="xtick_7">
     <g id="line2d_13">
      <path d="M 266.012999 462.04 
L 266.012999 25.44 
" clip-path="url(#p26c2e1f42a)" style="fill: none; stroke: #b0b0b0; stroke-width: 0.8; stroke-linecap: square"/>
     </g>
     <g id="line2d_14">
      <g>
       <use xlink:href="#m76098d8836" x="266.012999" y="462.04" style="stroke: #000000; stroke-width: 0.8"/>
      </g>
     </g>
     <g id="text_7">
      <!-- 3000 -->
      <g transform="translate(253.287999 476.638438) scale(0.1 -0.1)">
       <defs>
        <path id="DejaVuSans-33" d="M 2597 2516 
Q 3050 2419 3304 2112 
Q 3559 1806 3559 1356 
Q 3559 666 3084 287 
Q 2609 -91 1734 -91 
Q 1441 -91 1130 -33 
Q 819 25 488 141 
L 488 750 
Q 750 597 1062 519 
Q 1375 441 1716 441 
Q 2309 441 2620 675 
Q 2931 909 2931 1356 
Q 2931 1769 2642 2001 
Q 2353 2234 1838 2234 
L 1294 2234 
L 1294 2753 
L 1863 2753 
Q 2328 2753 2575 2939 
Q 2822 3125 2822 3475 
Q 2822 3834 2567 4026 
Q 2313 4219 1838 4219 
Q 1578 4219 1281 4162 
Q 984 4106 628 3988 
L 628 4550 
Q 988 4650 1302 4700 
Q 1616 4750 1894 4750 
Q 2613 4750 3031 4423 
Q 3450 4097 3450 3541 
Q 3450 3153 3228 2886 
Q 3006 2619 2597 2516 
z
" transform="scale(0.015625)"/>
       </defs>
       <use xlink:href="#DejaVuSans-33"/>
       <use xlink:href="#DejaVuSans-30" x="63.623047"/>
       <use xlink:href="#DejaVuSans-30" x="127.246094"/>
       <use xlink:href="#DejaVuSans-30" x="190.869141"/>
      </g>
     </g>
    </g>
    <g id="text_8">
     <!-- Time step -->
     <g transform="translate(135.931719 490.316563) scale(0.1 -0.1)">
      <defs>
       <path id="DejaVuSans-54" d="M -19 4666 
L 3928 4666 
L 3928 4134 
L 2272 4134 
L 2272 0 
L 1638 0 
L 1638 4134 
L -19 4134 
L -19 4666 
z
" transform="scale(0.015625)"/>
       <path id="DejaVuSans-69" d="M 603 3500 
L 1178 3500 
L 1178 0 
L 603 0 
L 603 3500 
z
M 603 4863 
L 1178 4863 
L 1178 4134 
L 603 4134 
L 603 4863 
z
" transform="scale(0.015625)"/>
       <path id="DejaVuSans-6d" d="M 3328 2828 
Q 3544 3216 3844 3400 
Q 4144 3584 4550 3584 
Q 5097 3584 5394 3201 
Q 5691 2819 5691 2113 
L 5691 0 
L 5113 0 
L 5113 2094 
Q 5113 2597 4934 2840 
Q 4756 3084 4391 3084 
Q 3944 3084 3684 2787 
Q 3425 2491 3425 1978 
L 3425 0 
L 2847 0 
L 2847 2094 
Q 2847 2600 2669 2842 
Q 2491 3084 2119 3084 
Q 1678 3084 1418 2786 
Q 1159 2488 1159 1978 
L 1159 0 
L 581 0 
L 581 3500 
L 1159 3500 
L 1159 2956 
Q 1356 3278 1631 3431 
Q 1906 3584 2284 3584 
Q 2666 3584 2933 3390 
Q 3200 3197 3328 2828 
z
" transform="scale(0.015625)"/>
       <path id="DejaVuSans-65" d="M 3597 1894 
L 3597 1613 
L 953 1613 
Q 991 1019 1311 708 
Q 1631 397 2203 397 
Q 2534 397 2845 478 
Q 3156 559 3463 722 
L 3463 178 
Q 3153 47 2828 -22 
Q 2503 -91 2169 -91 
Q 1331 -91 842 396 
Q 353 884 353 1716 
Q 353 2575 817 3079 
Q 1281 3584 2069 3584 
Q 2775 3584 3186 3129 
Q 3597 2675 3597 1894 
z
M 3022 2063 
Q 3016 2534 2758 2815 
Q 2500 3097 2075 3097 
Q 1594 3097 1305 2825 
Q 1016 2553 972 2059 
L 3022 2063 
z
" transform="scale(0.015625)"/>
       <path id="DejaVuSans-20" transform="scale(0.015625)"/>
       <path id="DejaVuSans-73" d="M 2834 3397 
L 2834 2853 
Q 2591 2978 2328 3040 
Q 2066 3103 1784 3103 
Q 1356 3103 1142 2972 
Q 928 2841 928 2578 
Q 928 2378 1081 2264 
Q 1234 2150 1697 2047 
L 1894 2003 
Q 2506 1872 2764 1633 
Q 3022 1394 3022 966 
Q 3022 478 2636 193 
Q 2250 -91 1575 -91 
Q 1294 -91 989 -36 
Q 684 19 347 128 
L 347 722 
Q 666 556 975 473 
Q 1284 391 1588 391 
Q 1994 391 2212 530 
Q 2431 669 2431 922 
Q 2431 1156 2273 1281 
Q 2116 1406 1581 1522 
L 1381 1569 
Q 847 1681 609 1914 
Q 372 2147 372 2553 
Q 372 3047 722 3315 
Q 1072 3584 1716 3584 
Q 2034 3584 2315 3537 
Q 2597 3491 2834 3397 
z
" transform="scale(0.015625)"/>
       <path id="DejaVuSans-74" d="M 1172 4494 
L 1172 3500 
L 2356 3500 
L 2356 3053 
L 1172 3053 
L 1172 1153 
Q 1172 725 1289 603 
Q 1406 481 1766 481 
L 2356 481 
L 2356 0 
L 1766 0 
Q 1100 0 847 248 
Q 594 497 594 1153 
L 594 3053 
L 172 3053 
L 172 3500 
L 594 3500 
L 594 4494 
L 1172 4494 
z
" transform="scale(0.015625)"/>
       <path id="DejaVuSans-70" d="M 1159 525 
L 1159 -1331 
L 581 -1331 
L 581 3500 
L 1159 3500 
L 1159 2969 
Q 1341 3281 1617 3432 
Q 1894 3584 2278 3584 
Q 2916 3584 3314 3078 
Q 3713 2572 3713 1747 
Q 3713 922 3314 415 
Q 2916 -91 2278 -91 
Q 1894 -91 1617 61 
Q 1341 213 1159 525 
z
M 3116 1747 
Q 3116 2381 2855 2742 
Q 2594 3103 2138 3103 
Q 1681 3103 1420 2742 
Q 1159 2381 1159 1747 
Q 1159 1113 1420 752 
Q 1681 391 2138 391 
Q 2594 391 2855 752 
Q 3116 1113 3116 1747 
z
" transform="scale(0.015625)"/>
      </defs>
      <use xlink:href="#DejaVuSans-54"/>
      <use xlink:href="#DejaVuSans-69" x="57.958984"/>
      <use xlink:href="#DejaVuSans-6d" x="85.742188"/>
      <use xlink:href="#DejaVuSans-65" x="183.154297"/>
      <use xlink:href="#DejaVuSans-20" x="244.677734"/>
      <use xlink:href="#DejaVuSans-73" x="276.464844"/>
      <use xlink:href="#DejaVuSans-74" x="328.564453"/>
      <use xlink:href="#DejaVuSans-65" x="367.773438"/>
      <use xlink:href="#DejaVuSans-70" x="429.296875"/>
     </g>
    </g>
   </g>
   <g id="matplotlib.axis_2">
    <g id="ytick_1">
     <g id="line2d_15">
      <path d="M 44.66 414.503214 
L 276.48 414.503214 
" clip-path="url(#p26c2e1f42a)" style="fill: none; stroke: #b0b0b0; stroke-width: 0.8; stroke-linecap: square"/>
     </g>
     <g id="line2d_16">
      <defs>
       <path id="me0315930d1" d="M 0 0 
L -3.5 0 
" style="stroke: #000000; stroke-width: 0.8"/>
      </defs>
      <g>
       <use xlink:href="#me0315930d1" x="44.66" y="414.503214" style="stroke: #000000; stroke-width: 0.8"/>
      </g>
     </g>
     <g id="text_9">
      <!-- 10 -->
      <g transform="translate(24.935 418.302432) scale(0.1 -0.1)">
       <use xlink:href="#DejaVuSans-31"/>
       <use xlink:href="#DejaVuSans-30" x="63.623047"/>
      </g>
     </g>
    </g>
    <g id="ytick_2">
     <g id="line2d_17">
      <path d="M 44.66 322.198774 
L 276.48 322.198774 
" clip-path="url(#p26c2e1f42a)" style="fill: none; stroke: #b0b0b0; stroke-width: 0.8; stroke-linecap: square"/>
     </g>
     <g id="line2d_18">
      <g>
       <use xlink:href="#me0315930d1" x="44.66" y="322.198774" style="stroke: #000000; stroke-width: 0.8"/>
      </g>
     </g>
     <g id="text_10">
      <!-- 20 -->
      <g transform="translate(24.935 325.997993) scale(0.1 -0.1)">
       <use xlink:href="#DejaVuSans-32"/>
       <use xlink:href="#DejaVuSans-30" x="63.623047"/>
      </g>
     </g>
    </g>
    <g id="ytick_3">
     <g id="line2d_19">
      <path d="M 44.66 229.894334 
L 276.48 229.894334 
" clip-path="url(#p26c2e1f42a)" style="fill: none; stroke: #b0b0b0; stroke-width: 0.8; stroke-linecap: square"/>
     </g>
     <g id="line2d_20">
      <g>
       <use xlink:href="#me0315930d1" x="44.66" y="229.894334" style="stroke: #000000; stroke-width: 0.8"/>
      </g>
     </g>
     <g id="text_11">
      <!-- 30 -->
      <g transform="translate(24.935 233.693553) scale(0.1 -0.1)">
       <use xlink:href="#DejaVuSans-33"/>
       <use xlink:href="#DejaVuSans-30" x="63.623047"/>
      </g>
     </g>
    </g>
    <g id="ytick_4">
     <g id="line2d_21">
      <path d="M 44.66 137.589894 
L 276.48 137.589894 
" clip-path="url(#p26c2e1f42a)" style="fill: none; stroke: #b0b0b0; stroke-width: 0.8; stroke-linecap: square"/>
     </g>
     <g id="line2d_22">
      <g>
       <use xlink:href="#me0315930d1" x="44.66" y="137.589894" style="stroke: #000000; stroke-width: 0.8"/>
      </g>
     </g>
     <g id="text_12">
      <!-- 40 -->
      <g transform="translate(24.935 141.389113) scale(0.1 -0.1)">
       <defs>
        <path id="DejaVuSans-34" d="M 2419 4116 
L 825 1625 
L 2419 1625 
L 2419 4116 
z
M 2253 4666 
L 3047 4666 
L 3047 1625 
L 3713 1625 
L 3713 1100 
L 3047 1100 
L 3047 0 
L 2419 0 
L 2419 1100 
L 313 1100 
L 313 1709 
L 2253 4666 
z
" transform="scale(0.015625)"/>
       </defs>
       <use xlink:href="#DejaVuSans-34"/>
       <use xlink:href="#DejaVuSans-30" x="63.623047"/>
      </g>
     </g>
    </g>
    <g id="ytick_5">
     <g id="line2d_23">
      <path d="M 44.66 45.285455 
L 276.48 45.285455 
" clip-path="url(#p26c2e1f42a)" style="fill: none; stroke: #b0b0b0; stroke-width: 0.8; stroke-linecap: square"/>
     </g>
     <g id="line2d_24">
      <g>
       <use xlink:href="#me0315930d1" x="44.66" y="45.285455" style="stroke: #000000; stroke-width: 0.8"/>
      </g>
     </g>
     <g id="text_13">
      <!-- 50 -->
      <g transform="translate(24.935 49.084673) scale(0.1 -0.1)">
       <use xlink:href="#DejaVuSans-35"/>
       <use xlink:href="#DejaVuSans-30" x="63.623047"/>
      </g>
     </g>
    </g>
    <g id="text_14">
     <!-- Num bots in zone -->
     <g transform="translate(18.855313 287.572031) rotate(-90) scale(0.1 -0.1)">
      <defs>
       <path id="DejaVuSans-4e" d="M 628 4666 
L 1478 4666 
L 3547 763 
L 3547 4666 
L 4159 4666 
L 4159 0 
L 3309 0 
L 1241 3903 
L 1241 0 
L 628 0 
L 628 4666 
z
" transform="scale(0.015625)"/>
       <path id="DejaVuSans-75" d="M 544 1381 
L 544 3500 
L 1119 3500 
L 1119 1403 
Q 1119 906 1312 657 
Q 1506 409 1894 409 
Q 2359 409 2629 706 
Q 2900 1003 2900 1516 
L 2900 3500 
L 3475 3500 
L 3475 0 
L 2900 0 
L 2900 538 
Q 2691 219 2414 64 
Q 2138 -91 1772 -91 
Q 1169 -91 856 284 
Q 544 659 544 1381 
z
M 1991 3584 
L 1991 3584 
z
" transform="scale(0.015625)"/>
       <path id="DejaVuSans-62" d="M 3116 1747 
Q 3116 2381 2855 2742 
Q 2594 3103 2138 3103 
Q 1681 3103 1420 2742 
Q 1159 2381 1159 1747 
Q 1159 1113 1420 752 
Q 1681 391 2138 391 
Q 2594 391 2855 752 
Q 3116 1113 3116 1747 
z
M 1159 2969 
Q 1341 3281 1617 3432 
Q 1894 3584 2278 3584 
Q 2916 3584 3314 3078 
Q 3713 2572 3713 1747 
Q 3713 922 3314 415 
Q 2916 -91 2278 -91 
Q 1894 -91 1617 61 
Q 1341 213 1159 525 
L 1159 0 
L 581 0 
L 581 4863 
L 1159 4863 
L 1159 2969 
z
" transform="scale(0.015625)"/>
       <path id="DejaVuSans-6f" d="M 1959 3097 
Q 1497 3097 1228 2736 
Q 959 2375 959 1747 
Q 959 1119 1226 758 
Q 1494 397 1959 397 
Q 2419 397 2687 759 
Q 2956 1122 2956 1747 
Q 2956 2369 2687 2733 
Q 2419 3097 1959 3097 
z
M 1959 3584 
Q 2709 3584 3137 3096 
Q 3566 2609 3566 1747 
Q 3566 888 3137 398 
Q 2709 -91 1959 -91 
Q 1206 -91 779 398 
Q 353 888 353 1747 
Q 353 2609 779 3096 
Q 1206 3584 1959 3584 
z
" transform="scale(0.015625)"/>
       <path id="DejaVuSans-6e" d="M 3513 2113 
L 3513 0 
L 2938 0 
L 2938 2094 
Q 2938 2591 2744 2837 
Q 2550 3084 2163 3084 
Q 1697 3084 1428 2787 
Q 1159 2491 1159 1978 
L 1159 0 
L 581 0 
L 581 3500 
L 1159 3500 
L 1159 2956 
Q 1366 3272 1645 3428 
Q 1925 3584 2291 3584 
Q 2894 3584 3203 3211 
Q 3513 2838 3513 2113 
z
" transform="scale(0.015625)"/>
       <path id="DejaVuSans-7a" d="M 353 3500 
L 3084 3500 
L 3084 2975 
L 922 459 
L 3084 459 
L 3084 0 
L 275 0 
L 275 525 
L 2438 3041 
L 353 3041 
L 353 3500 
z
" transform="scale(0.015625)"/>
      </defs>
      <use xlink:href="#DejaVuSans-4e"/>
      <use xlink:href="#DejaVuSans-75" x="74.804688"/>
      <use xlink:href="#DejaVuSans-6d" x="138.183594"/>
      <use xlink:href="#DejaVuSans-20" x="235.595703"/>
      <use xlink:href="#DejaVuSans-62" x="267.382812"/>
      <use xlink:href="#DejaVuSans-6f" x="330.859375"/>
      <use xlink:href="#DejaVuSans-74" x="392.041016"/>
      <use xlink:href="#DejaVuSans-73" x="431.25"/>
      <use xlink:href="#DejaVuSans-20" x="483.349609"/>
      <use xlink:href="#DejaVuSans-69" x="515.136719"/>
      <use xlink:href="#DejaVuSans-6e" x="542.919922"/>
      <use xlink:href="#DejaVuSans-20" x="606.298828"/>
      <use xlink:href="#DejaVuSans-7a" x="638.085938"/>
      <use xlink:href="#DejaVuSans-6f" x="690.576172"/>
      <use xlink:href="#DejaVuSans-6e" x="751.757812"/>
      <use xlink:href="#DejaVuSans-65" x="815.136719"/>
     </g>
    </g>
   </g>
   <g id="line2d_25">
    <path d="M 55.197273 432.964101 
L 55.548632 432.964101 
L 55.689176 442.194545 
L 60.116306 442.194545 
L 60.25685 432.964101 
L 60.60821 432.964101 
L 60.748754 423.733658 
L 68.759751 423.733658 
L 68.900295 432.964101 
L 71.711171 432.964101 
L 71.851715 442.194545 
L 72.484162 442.194545 
L 72.624706 432.964101 
L 72.835522 432.964101 
L 72.976066 423.733658 
L 73.819329 423.733658 
L 73.959872 405.27277 
L 76.06803 405.27277 
L 76.208573 396.042326 
L 78.387003 396.042326 
L 78.597818 377.581438 
L 82.111414 377.581438 
L 82.251958 368.350994 
L 84.079027 368.350994 
L 84.219571 359.12055 
L 86.398 359.12055 
L 86.538544 349.890106 
L 88.014254 349.890106 
L 88.154798 340.659662 
L 89.489964 340.659662 
L 89.630508 331.429218 
L 95.95498 331.429218 
L 96.095524 322.198774 
L 96.236067 322.198774 
L 96.446883 303.737886 
L 98.765856 303.737886 
L 98.9064 294.507442 
L 99.046944 294.507442 
L 99.187488 285.276998 
L 101.084829 285.276998 
L 101.225373 276.046554 
L 101.436189 276.046554 
L 101.647004 257.585666 
L 103.192986 257.585666 
L 103.33353 248.355222 
L 108.182292 248.355222 
L 108.322836 239.124778 
L 110.079634 239.124778 
L 110.220177 229.894334 
L 110.290449 229.894334 
L 110.430993 220.66389 
L 112.398607 220.66389 
L 112.53915 211.433446 
L 115.912202 211.433446 
L 116.052746 202.203002 
L 117.528456 202.203002 
L 117.669 192.972558 
L 118.020359 192.972558 
L 118.160903 174.51167 
L 120.901507 174.51167 
L 121.042051 165.281226 
L 121.252867 165.281226 
L 121.393411 156.050782 
L 123.150209 156.050782 
L 123.290752 146.820338 
L 125.750269 146.820338 
L 125.890813 137.589894 
L 127.225979 137.589894 
L 127.366523 128.35945 
L 128.139514 128.35945 
L 128.280058 119.129006 
L 132.285557 119.129006 
L 132.426101 109.898562 
L 133.761267 109.898562 
L 133.901811 100.668118 
L 140.50737 100.668118 
L 140.647914 109.898562 
L 143.45879 109.898562 
L 143.599334 119.129006 
L 146.550754 119.129006 
L 146.691298 109.898562 
L 148.307552 109.898562 
L 148.448096 100.668118 
L 148.518368 100.668118 
L 148.58864 109.898562 
L 148.729183 100.668118 
L 148.939999 100.668118 
L 149.080543 109.898562 
L 149.994078 109.898562 
L 150.134622 100.668118 
L 162.783565 100.668118 
L 162.924109 91.437674 
L 170.091844 91.437674 
L 170.302659 72.976786 
L 173.745983 72.976786 
L 173.886527 63.746342 
L 175.010877 63.746342 
L 175.151421 54.515899 
L 181.475893 54.515899 
L 181.616437 63.746342 
L 183.794866 63.746342 
L 183.93541 72.976786 
L 187.870637 72.976786 
L 188.01118 63.746342 
L 189.276075 63.746342 
L 189.416619 54.515899 
L 200.800668 54.515899 
L 200.941212 45.285455 
L 265.942727 45.285455 
L 265.942727 45.285455 
" clip-path="url(#p26c2e1f42a)" style="fill: none; stroke: #1f77b4; stroke-width: 1.5; stroke-linecap: square"/>
   </g>
   <g id="line2d_26">
    <path d="M 55.197273 423.733658 
L 56.110808 423.733658 
L 56.251351 432.964101 
L 56.462167 432.964101 
L 56.602711 423.733658 
L 59.202772 423.733658 
L 59.343315 414.503214 
L 62.716367 414.503214 
L 62.856911 423.733658 
L 64.402893 423.733658 
L 64.543437 432.964101 
L 64.68398 432.964101 
L 64.824524 442.194545 
L 69.46247 442.194545 
L 69.603014 432.964101 
L 72.624706 432.964101 
L 72.76525 423.733658 
L 76.208573 423.733658 
L 76.349117 414.503214 
L 80.916791 414.503214 
L 81.057335 405.27277 
L 81.97087 405.27277 
L 82.111414 396.042326 
L 82.603317 396.042326 
L 82.743861 386.811882 
L 84.219571 386.811882 
L 84.360115 377.581438 
L 86.257456 377.581438 
L 86.398 368.350994 
L 93.425191 368.350994 
L 93.565735 359.12055 
L 94.47927 359.12055 
L 94.619814 349.890106 
L 96.236067 349.890106 
L 96.446883 331.429218 
L 98.273953 331.429218 
L 98.414497 322.198774 
L 100.171294 322.198774 
L 100.38211 303.737886 
L 101.295645 303.737886 
L 101.436189 294.507442 
L 107.690389 294.507442 
L 107.830932 285.276998 
L 108.182292 285.276998 
L 108.322836 276.046554 
L 110.993168 276.046554 
L 111.133712 266.81611 
L 112.047247 266.81611 
L 112.187791 257.585666 
L 112.398607 257.585666 
L 112.53915 248.355222 
L 119.425797 248.355222 
L 119.566341 257.585666 
L 123.852928 257.585666 
L 123.9232 248.355222 
L 124.063743 257.585666 
L 124.204287 248.355222 
L 124.344831 257.585666 
L 124.415103 257.585666 
L 124.555647 248.355222 
L 124.977278 248.355222 
L 125.117822 257.585666 
L 126.804348 257.585666 
L 126.944892 266.81611 
L 127.085435 257.585666 
L 127.225979 257.585666 
L 127.366523 248.355222 
L 128.561146 248.355222 
L 128.701689 239.124778 
L 131.30175 239.124778 
L 131.442294 248.355222 
L 133.550451 248.355222 
L 133.690995 239.124778 
L 136.08024 239.124778 
L 136.220784 229.894334 
L 141.420905 229.894334 
L 141.561449 239.124778 
L 142.615527 239.124778 
L 142.756071 248.355222 
L 147.675105 248.355222 
L 147.815649 239.124778 
L 147.88592 239.124778 
L 148.026464 229.894334 
L 148.799455 229.894334 
L 148.939999 220.66389 
L 152.945498 220.66389 
L 153.086042 239.124778 
L 156.388821 239.124778 
L 156.529365 229.894334 
L 157.513172 229.894334 
L 157.723988 211.433446 
L 158.075347 211.433446 
L 158.215891 202.203002 
L 158.286163 202.203002 
L 158.426707 192.972558 
L 165.102538 192.972558 
L 165.243082 183.742114 
L 166.226889 183.742114 
L 166.367432 174.51167 
L 169.810756 174.51167 
L 169.9513 165.281226 
L 170.021572 165.281226 
L 170.162116 156.050782 
L 170.513475 156.050782 
L 170.654019 146.820338 
L 171.989185 146.820338 
L 172.200001 128.35945 
L 172.55136 128.35945 
L 172.691904 119.129006 
L 179.719095 119.129006 
L 179.859639 109.898562 
L 179.929911 109.898562 
L 180.070455 100.668118 
L 180.140727 100.668118 
L 180.28127 91.437674 
L 182.951603 91.437674 
L 183.092147 82.20723 
L 183.513778 82.20723 
L 183.654322 72.976786 
L 184.005682 72.976786 
L 184.146225 63.746342 
L 195.670818 63.746342 
L 195.811362 54.515899 
L 196.303266 54.515899 
L 196.443809 45.285455 
L 232.633842 45.285455 
L 232.774386 54.515899 
L 235.304175 54.515899 
L 235.444719 45.285455 
L 265.942727 45.285455 
L 265.942727 45.285455 
" clip-path="url(#p26c2e1f42a)" style="fill: none; stroke: #ff7f0e; stroke-width: 1.5; stroke-linecap: square"/>
   </g>
   <g id="line2d_27">
    <path d="M 55.197273 442.194545 
L 62.294736 442.194545 
L 62.435279 432.964101 
L 69.181383 432.964101 
L 69.321926 423.733658 
L 71.28954 423.733658 
L 71.430084 414.503214 
L 77.824827 414.503214 
L 77.965371 405.27277 
L 91.035946 405.27277 
L 91.17649 396.042326 
L 92.863016 396.042326 
L 93.00356 386.811882 
L 93.425191 386.811882 
L 93.565735 377.581438 
L 93.636007 377.581438 
L 93.776551 368.350994 
L 96.236067 368.350994 
L 96.376611 349.890106 
L 97.009058 349.890106 
L 97.149602 340.659662 
L 98.625312 340.659662 
L 98.765856 331.429218 
L 108.393108 331.429218 
L 108.533652 322.198774 
L 119.425797 322.198774 
L 119.566341 312.96833 
L 124.274559 312.96833 
L 124.415103 303.737886 
L 125.890813 303.737886 
L 126.031357 312.96833 
L 130.247671 312.96833 
L 130.388215 322.198774 
L 134.463986 322.198774 
L 134.60453 312.96833 
L 134.745074 312.96833 
L 134.885617 303.737886 
L 136.853231 303.737886 
L 136.993775 294.507442 
L 139.172204 294.507442 
L 139.312748 285.276998 
L 139.453291 294.507442 
L 141.842536 294.507442 
L 141.98308 285.276998 
L 143.739878 285.276998 
L 143.880422 276.046554 
L 145.075044 276.046554 
L 145.215588 266.81611 
L 146.76157 266.81611 
L 146.902114 257.585666 
L 147.042658 257.585666 
L 147.183201 248.355222 
L 148.377824 248.355222 
L 148.518368 239.124778 
L 151.680604 239.124778 
L 151.821147 229.894334 
L 153.086042 229.894334 
L 153.226586 220.66389 
L 154.069848 220.66389 
L 154.210392 211.433446 
L 156.459093 211.433446 
L 156.599637 202.203002 
L 157.372628 202.203002 
L 157.513172 192.972558 
L 159.340242 192.972558 
L 159.480785 183.742114 
L 160.324048 183.742114 
L 160.464592 174.51167 
L 160.886224 174.51167 
L 161.026767 165.281226 
L 162.502477 165.281226 
L 162.643021 156.050782 
L 165.102538 156.050782 
L 165.243082 146.820338 
L 166.437704 146.820338 
L 166.578248 137.589894 
L 168.194502 137.589894 
L 168.335046 128.35945 
L 170.654019 128.35945 
L 170.794563 119.129006 
L 176.837947 119.129006 
L 176.978491 128.35945 
L 184.848944 128.35945 
L 184.989488 137.589894 
L 186.957102 137.589894 
L 187.097646 146.820338 
L 188.01118 146.820338 
L 188.151724 156.050782 
L 191.595048 156.050782 
L 191.735592 165.281226 
L 193.843749 165.281226 
L 193.984293 174.51167 
L 197.287072 174.51167 
L 197.427616 183.742114 
L 199.324958 183.742114 
L 199.465502 192.972558 
L 200.730396 192.972558 
L 200.87094 183.742114 
L 201.011484 183.742114 
L 201.152027 174.51167 
L 201.925018 174.51167 
L 202.065562 165.281226 
L 203.189913 165.281226 
L 203.330457 156.050782 
L 203.82236 156.050782 
L 203.962904 146.820338 
L 206.141333 146.820338 
L 206.281877 128.35945 
L 209.022481 128.35945 
L 209.163025 119.129006 
L 209.584656 119.129006 
L 209.7252 109.898562 
L 211.271182 109.898562 
L 211.411726 100.668118 
L 213.730699 100.668118 
L 213.871243 91.437674 
L 214.784778 91.437674 
L 214.925321 82.20723 
L 220.617346 82.20723 
L 220.75789 72.976786 
L 221.811969 72.976786 
L 221.952512 63.746342 
L 222.936319 63.746342 
L 223.076863 54.515899 
L 230.595957 54.515899 
L 230.736501 45.285455 
L 233.406833 45.285455 
L 233.547377 54.515899 
L 239.098858 54.515899 
L 239.239402 45.285455 
L 265.942727 45.285455 
L 265.942727 45.285455 
" clip-path="url(#p26c2e1f42a)" style="fill: none; stroke: #2ca02c; stroke-width: 1.5; stroke-linecap: square"/>
   </g>
   <g id="line2d_28">
    <path d="M 55.197273 442.194545 
L 55.47836 442.194545 
L 55.618904 432.964101 
L 58.148693 432.964101 
L 58.289237 442.194545 
L 59.1325 442.194545 
L 59.273043 432.964101 
L 72.343618 432.964101 
L 72.484162 423.733658 
L 74.732863 423.733658 
L 74.873407 414.503214 
L 75.786942 414.503214 
L 75.927486 405.27277 
L 79.159994 405.27277 
L 79.300537 396.042326 
L 80.284344 396.042326 
L 80.424888 386.811882 
L 81.830326 386.811882 
L 81.97087 377.581438 
L 82.603317 377.581438 
L 82.743861 368.350994 
L 85.133106 368.350994 
L 85.27365 359.12055 
L 86.608816 359.12055 
L 86.74936 349.890106 
L 86.960176 349.890106 
L 87.100719 340.659662 
L 92.722472 340.659662 
L 92.863016 331.429218 
L 93.214375 331.429218 
L 93.354919 322.198774 
L 96.095524 322.198774 
L 96.236067 312.96833 
L 96.306339 312.96833 
L 96.446883 303.737886 
L 97.07933 303.737886 
L 97.219874 294.507442 
L 97.852321 294.507442 
L 97.992865 285.276998 
L 103.474074 285.276998 
L 103.614618 276.046554 
L 106.28495 276.046554 
L 106.425494 266.81611 
L 107.128213 266.81611 
L 107.268757 257.585666 
L 107.339029 257.585666 
L 107.479573 248.355222 
L 111.485072 248.355222 
L 111.625616 239.124778 
L 117.387912 239.124778 
L 117.528456 229.894334 
L 118.020359 229.894334 
L 118.160903 220.66389 
L 120.198788 220.66389 
L 120.339332 211.433446 
L 121.252867 211.433446 
L 121.393411 202.203002 
L 122.869121 202.203002 
L 123.009665 192.972558 
L 126.171901 192.972558 
L 126.312444 183.742114 
L 127.225979 183.742114 
L 127.366523 174.51167 
L 128.490874 174.51167 
L 128.631417 165.281226 
L 131.372022 165.281226 
L 131.512566 156.050782 
L 133.269363 156.050782 
L 133.409907 146.820338 
L 136.993775 146.820338 
L 137.134318 137.589894 
L 139.664107 137.589894 
L 139.804651 146.820338 
L 141.069545 146.820338 
L 141.210089 156.050782 
L 142.896615 156.050782 
L 143.037159 165.281226 
L 147.464289 165.281226 
L 147.604833 156.050782 
L 147.675105 165.281226 
L 147.815649 156.050782 
L 148.026464 156.050782 
L 148.096736 165.281226 
L 148.23728 156.050782 
L 151.891419 156.050782 
L 152.031963 146.820338 
L 153.086042 146.820338 
L 153.296857 128.35945 
L 154.842839 128.35945 
L 154.983383 119.129006 
L 159.832145 119.129006 
L 159.972689 109.898562 
L 160.183505 109.898562 
L 160.324048 100.668118 
L 162.572749 100.668118 
L 162.713293 91.437674 
L 163.978188 91.437674 
L 164.118731 82.20723 
L 168.545862 82.20723 
L 168.686405 72.976786 
L 170.302659 72.976786 
L 170.443203 63.746342 
L 175.221693 63.746342 
L 175.362237 54.515899 
L 175.713596 54.515899 
L 175.85414 63.746342 
L 180.773174 63.746342 
L 180.98399 82.20723 
L 183.092147 82.20723 
L 183.373234 109.898562 
L 185.05976 109.898562 
L 185.200304 119.129006 
L 194.546468 119.129006 
L 194.687012 109.898562 
L 197.005985 109.898562 
L 197.2168 91.437674 
L 202.627737 91.437674 
L 202.768281 82.20723 
L 213.730699 82.20723 
L 213.871243 72.976786 
L 217.174023 72.976786 
L 217.314566 63.746342 
L 224.622845 63.746342 
L 224.763389 72.976786 
L 228.628344 72.976786 
L 228.768888 63.746342 
L 230.736501 63.746342 
L 230.877045 54.515899 
L 240.9962 54.515899 
L 241.136743 45.285455 
L 265.942727 45.285455 
L 265.942727 45.285455 
" clip-path="url(#p26c2e1f42a)" style="fill: none; stroke: #d62728; stroke-width: 1.5; stroke-linecap: square"/>
   </g>
   <g id="line2d_29">
    <path d="M 55.197273 423.733658 
L 57.375702 423.733658 
L 57.516246 432.964101 
L 63.419086 432.964101 
L 63.55963 423.733658 
L 66.089419 423.733658 
L 66.229962 414.503214 
L 67.213769 414.503214 
L 67.354313 405.27277 
L 70.727365 405.27277 
L 70.867908 386.811882 
L 71.570627 386.811882 
L 71.851715 359.12055 
L 72.976066 359.12055 
L 73.116609 349.890106 
L 74.100416 349.890106 
L 74.24096 340.659662 
L 74.451776 340.659662 
L 74.59232 331.429218 
L 75.435582 331.429218 
L 75.576126 322.198774 
L 75.927486 322.198774 
L 76.06803 312.96833 
L 76.138302 312.96833 
L 76.278845 303.737886 
L 76.911293 303.737886 
L 77.051836 294.507442 
L 79.511353 294.507442 
L 79.651897 285.276998 
L 84.149299 285.276998 
L 84.289843 276.046554 
L 88.506158 276.046554 
L 88.646701 266.81611 
L 89.841324 266.81611 
L 89.981868 257.585666 
L 92.511656 257.585666 
L 92.6522 248.355222 
L 94.830629 248.355222 
L 94.971173 257.585666 
L 97.360418 257.585666 
L 97.500962 248.355222 
L 99.046944 248.355222 
L 99.187488 239.124778 
L 100.38211 239.124778 
L 100.522654 229.894334 
L 104.80924 229.894334 
L 104.949784 220.66389 
L 106.706582 220.66389 
L 106.847126 211.433446 
L 107.760661 211.433446 
L 107.901204 202.203002 
L 109.93909 202.203002 
L 110.079634 192.972558 
L 110.501265 192.972558 
L 110.641809 183.742114 
L 110.712081 183.742114 
L 110.852625 174.51167 
L 111.133712 174.51167 
L 111.274256 165.281226 
L 111.555344 165.281226 
L 111.695887 156.050782 
L 114.225676 156.050782 
L 114.36622 146.820338 
L 114.858123 146.820338 
L 114.998667 137.589894 
L 116.755465 137.589894 
L 116.896009 128.35945 
L 117.598728 128.35945 
L 117.739272 119.129006 
L 119.14471 119.129006 
L 119.285254 109.898562 
L 121.74477 109.898562 
L 121.885314 100.668118 
L 122.728577 100.668118 
L 122.869121 91.437674 
L 123.361024 91.437674 
L 123.501568 100.668118 
L 124.625919 100.668118 
L 124.836734 82.20723 
L 128.35033 82.20723 
L 128.490874 91.437674 
L 129.896312 91.437674 
L 130.036856 100.668118 
L 133.339635 100.668118 
L 133.480179 91.437674 
L 139.453291 91.437674 
L 139.593835 100.668118 
L 140.226282 100.668118 
L 140.366826 109.898562 
L 140.788458 109.898562 
L 140.929001 119.129006 
L 141.491177 119.129006 
L 141.631721 128.35945 
L 142.685799 128.35945 
L 142.826343 137.589894 
L 150.696797 137.589894 
L 150.837341 146.820338 
L 153.788761 146.820338 
L 153.999577 128.35945 
L 158.286163 128.35945 
L 158.426707 119.129006 
L 159.972689 119.129006 
L 160.113233 109.898562 
L 162.502477 109.898562 
L 162.643021 100.668118 
L 162.853837 100.668118 
L 162.994381 91.437674 
L 164.048459 91.437674 
L 164.189003 82.20723 
L 170.654019 82.20723 
L 170.794563 72.976786 
L 172.90272 72.976786 
L 173.043264 63.746342 
L 178.454201 63.746342 
L 178.594745 54.515899 
L 181.194805 54.515899 
L 181.335349 63.746342 
L 182.670515 63.746342 
L 182.811059 72.976786 
L 185.832751 72.976786 
L 185.973295 82.20723 
L 186.465198 82.20723 
L 186.605742 91.437674 
L 188.221996 91.437674 
L 188.36254 100.668118 
L 189.83825 100.668118 
L 189.978794 109.898562 
L 202.627737 109.898562 
L 202.768281 119.129006 
L 204.735895 119.129006 
L 204.876439 128.35945 
L 205.860245 128.35945 
L 206.000789 119.129006 
L 206.141333 119.129006 
L 206.352149 100.668118 
L 207.476499 100.668118 
L 207.617043 91.437674 
L 207.968402 91.437674 
L 208.108946 82.20723 
L 210.217104 82.20723 
L 210.357647 72.976786 
L 210.638735 72.976786 
L 210.779279 63.746342 
L 211.692814 63.746342 
L 211.833357 54.515899 
L 212.184717 54.515899 
L 212.325261 45.285455 
L 223.217407 45.285455 
L 223.357951 54.515899 
L 226.520186 54.515899 
L 226.66073 63.746342 
L 229.96351 63.746342 
L 230.104054 54.515899 
L 234.109553 54.515899 
L 234.250096 63.746342 
L 236.147438 63.746342 
L 236.287982 72.976786 
L 237.623148 72.976786 
L 237.763692 82.20723 
L 247.531487 82.20723 
L 247.672031 91.437674 
L 249.85046 91.437674 
L 249.920732 100.668118 
L 250.131548 82.20723 
L 252.099161 82.20723 
L 252.239705 72.976786 
L 253.996503 72.976786 
L 254.137047 82.20723 
L 255.331669 82.20723 
L 255.472213 72.976786 
L 261.445325 72.976786 
L 261.585869 82.20723 
L 262.850763 82.20723 
L 262.991307 91.437674 
L 265.942727 91.437674 
L 265.942727 91.437674 
" clip-path="url(#p26c2e1f42a)" style="fill: none; stroke: #9467bd; stroke-width: 1.5; stroke-linecap: square"/>
   </g>
   <g id="patch_3">
    <path d="M 44.66 462.04 
L 44.66 25.44 
" style="fill: none; stroke: #000000; stroke-width: 0.8; stroke-linejoin: miter; stroke-linecap: square"/>
   </g>
   <g id="patch_4">
    <path d="M 276.48 462.04 
L 276.48 25.44 
" style="fill: none; stroke: #000000; stroke-width: 0.8; stroke-linejoin: miter; stroke-linecap: square"/>
   </g>
   <g id="patch_5">
    <path d="M 44.66 462.04 
L 276.48 462.04 
" style="fill: none; stroke: #000000; stroke-width: 0.8; stroke-linejoin: miter; stroke-linecap: square"/>
   </g>
   <g id="patch_6">
    <path d="M 44.66 25.44 
L 276.48 25.44 
" style="fill: none; stroke: #000000; stroke-width: 0.8; stroke-linejoin: miter; stroke-linecap: square"/>
   </g>
   <g id="text_15">
    <!-- Experiment length: 300s -->
    <g transform="translate(288.071 187.718875) scale(0.08 -0.08)">
     <defs>
      <path id="DejaVuSans-45" d="M 628 4666 
L 3578 4666 
L 3578 4134 
L 1259 4134 
L 1259 2753 
L 3481 2753 
L 3481 2222 
L 1259 2222 
L 1259 531 
L 3634 531 
L 3634 0 
L 628 0 
L 628 4666 
z
" transform="scale(0.015625)"/>
      <path id="DejaVuSans-78" d="M 3513 3500 
L 2247 1797 
L 3578 0 
L 2900 0 
L 1881 1375 
L 863 0 
L 184 0 
L 1544 1831 
L 300 3500 
L 978 3500 
L 1906 2253 
L 2834 3500 
L 3513 3500 
z
" transform="scale(0.015625)"/>
      <path id="DejaVuSans-72" d="M 2631 2963 
Q 2534 3019 2420 3045 
Q 2306 3072 2169 3072 
Q 1681 3072 1420 2755 
Q 1159 2438 1159 1844 
L 1159 0 
L 581 0 
L 581 3500 
L 1159 3500 
L 1159 2956 
Q 1341 3275 1631 3429 
Q 1922 3584 2338 3584 
Q 2397 3584 2469 3576 
Q 2541 3569 2628 3553 
L 2631 2963 
z
" transform="scale(0.015625)"/>
      <path id="DejaVuSans-6c" d="M 603 4863 
L 1178 4863 
L 1178 0 
L 603 0 
L 603 4863 
z
" transform="scale(0.015625)"/>
      <path id="DejaVuSans-67" d="M 2906 1791 
Q 2906 2416 2648 2759 
Q 2391 3103 1925 3103 
Q 1463 3103 1205 2759 
Q 947 2416 947 1791 
Q 947 1169 1205 825 
Q 1463 481 1925 481 
Q 2391 481 2648 825 
Q 2906 1169 2906 1791 
z
M 3481 434 
Q 3481 -459 3084 -895 
Q 2688 -1331 1869 -1331 
Q 1566 -1331 1297 -1286 
Q 1028 -1241 775 -1147 
L 775 -588 
Q 1028 -725 1275 -790 
Q 1522 -856 1778 -856 
Q 2344 -856 2625 -561 
Q 2906 -266 2906 331 
L 2906 616 
Q 2728 306 2450 153 
Q 2172 0 1784 0 
Q 1141 0 747 490 
Q 353 981 353 1791 
Q 353 2603 747 3093 
Q 1141 3584 1784 3584 
Q 2172 3584 2450 3431 
Q 2728 3278 2906 2969 
L 2906 3500 
L 3481 3500 
L 3481 434 
z
" transform="scale(0.015625)"/>
      <path id="DejaVuSans-68" d="M 3513 2113 
L 3513 0 
L 2938 0 
L 2938 2094 
Q 2938 2591 2744 2837 
Q 2550 3084 2163 3084 
Q 1697 3084 1428 2787 
Q 1159 2491 1159 1978 
L 1159 0 
L 581 0 
L 581 4863 
L 1159 4863 
L 1159 2956 
Q 1366 3272 1645 3428 
Q 1925 3584 2291 3584 
Q 2894 3584 3203 3211 
Q 3513 2838 3513 2113 
z
" transform="scale(0.015625)"/>
      <path id="DejaVuSans-3a" d="M 750 794 
L 1409 794 
L 1409 0 
L 750 0 
L 750 794 
z
M 750 3309 
L 1409 3309 
L 1409 2516 
L 750 2516 
L 750 3309 
z
" transform="scale(0.015625)"/>
     </defs>
     <use xlink:href="#DejaVuSans-45"/>
     <use xlink:href="#DejaVuSans-78" x="63.183594"/>
     <use xlink:href="#DejaVuSans-70" x="122.363281"/>
     <use xlink:href="#DejaVuSans-65" x="185.839844"/>
     <use xlink:href="#DejaVuSans-72" x="247.363281"/>
     <use xlink:href="#DejaVuSans-69" x="288.476562"/>
     <use xlink:href="#DejaVuSans-6d" x="316.259766"/>
     <use xlink:href="#DejaVuSans-65" x="413.671875"/>
     <use xlink:href="#DejaVuSans-6e" x="475.195312"/>
     <use xlink:href="#DejaVuSans-74" x="538.574219"/>
     <use xlink:href="#DejaVuSans-20" x="577.783203"/>
     <use xlink:href="#DejaVuSans-6c" x="609.570312"/>
     <use xlink:href="#DejaVuSans-65" x="637.353516"/>
     <use xlink:href="#DejaVuSans-6e" x="698.876953"/>
     <use xlink:href="#DejaVuSans-67" x="762.255859"/>
     <use xlink:href="#DejaVuSans-74" x="825.732422"/>
     <use xlink:href="#DejaVuSans-68" x="864.941406"/>
     <use xlink:href="#DejaVuSans-3a" x="928.320312"/>
     <use xlink:href="#DejaVuSans-20" x="962.011719"/>
     <use xlink:href="#DejaVuSans-33" x="993.798828"/>
     <use xlink:href="#DejaVuSans-30" x="1057.421875"/>
     <use xlink:href="#DejaVuSans-30" x="1121.044922"/>
     <use xlink:href="#DejaVuSans-73" x="1184.667969"/>
    </g>
    <!-- Target area size: 2 -->
    <g transform="translate(288.071 196.677125) scale(0.08 -0.08)">
     <defs>
      <path id="DejaVuSans-61" d="M 2194 1759 
Q 1497 1759 1228 1600 
Q 959 1441 959 1056 
Q 959 750 1161 570 
Q 1363 391 1709 391 
Q 2188 391 2477 730 
Q 2766 1069 2766 1631 
L 2766 1759 
L 2194 1759 
z
M 3341 1997 
L 3341 0 
L 2766 0 
L 2766 531 
Q 2569 213 2275 61 
Q 1981 -91 1556 -91 
Q 1019 -91 701 211 
Q 384 513 384 1019 
Q 384 1609 779 1909 
Q 1175 2209 1959 2209 
L 2766 2209 
L 2766 2266 
Q 2766 2663 2505 2880 
Q 2244 3097 1772 3097 
Q 1472 3097 1187 3025 
Q 903 2953 641 2809 
L 641 3341 
Q 956 3463 1253 3523 
Q 1550 3584 1831 3584 
Q 2591 3584 2966 3190 
Q 3341 2797 3341 1997 
z
" transform="scale(0.015625)"/>
     </defs>
     <use xlink:href="#DejaVuSans-54"/>
     <use xlink:href="#DejaVuSans-61" x="44.583984"/>
     <use xlink:href="#DejaVuSans-72" x="105.863281"/>
     <use xlink:href="#DejaVuSans-67" x="145.226562"/>
     <use xlink:href="#DejaVuSans-65" x="208.703125"/>
     <use xlink:href="#DejaVuSans-74" x="270.226562"/>
     <use xlink:href="#DejaVuSans-20" x="309.435547"/>
     <use xlink:href="#DejaVuSans-61" x="341.222656"/>
     <use xlink:href="#DejaVuSans-72" x="402.501953"/>
     <use xlink:href="#DejaVuSans-65" x="441.365234"/>
     <use xlink:href="#DejaVuSans-61" x="502.888672"/>
     <use xlink:href="#DejaVuSans-20" x="564.167969"/>
     <use xlink:href="#DejaVuSans-73" x="595.955078"/>
     <use xlink:href="#DejaVuSans-69" x="648.054688"/>
     <use xlink:href="#DejaVuSans-7a" x="675.837891"/>
     <use xlink:href="#DejaVuSans-65" x="728.328125"/>
     <use xlink:href="#DejaVuSans-3a" x="789.851562"/>
     <use xlink:href="#DejaVuSans-20" x="823.542969"/>
     <use xlink:href="#DejaVuSans-32" x="855.330078"/>
    </g>
    <!-- Stationary target bot: true -->
    <g transform="translate(288.071 205.635375) scale(0.08 -0.08)">
     <defs>
      <path id="DejaVuSans-53" d="M 3425 4513 
L 3425 3897 
Q 3066 4069 2747 4153 
Q 2428 4238 2131 4238 
Q 1616 4238 1336 4038 
Q 1056 3838 1056 3469 
Q 1056 3159 1242 3001 
Q 1428 2844 1947 2747 
L 2328 2669 
Q 3034 2534 3370 2195 
Q 3706 1856 3706 1288 
Q 3706 609 3251 259 
Q 2797 -91 1919 -91 
Q 1588 -91 1214 -16 
Q 841 59 441 206 
L 441 856 
Q 825 641 1194 531 
Q 1563 422 1919 422 
Q 2459 422 2753 634 
Q 3047 847 3047 1241 
Q 3047 1584 2836 1778 
Q 2625 1972 2144 2069 
L 1759 2144 
Q 1053 2284 737 2584 
Q 422 2884 422 3419 
Q 422 4038 858 4394 
Q 1294 4750 2059 4750 
Q 2388 4750 2728 4690 
Q 3069 4631 3425 4513 
z
" transform="scale(0.015625)"/>
      <path id="DejaVuSans-79" d="M 2059 -325 
Q 1816 -950 1584 -1140 
Q 1353 -1331 966 -1331 
L 506 -1331 
L 506 -850 
L 844 -850 
Q 1081 -850 1212 -737 
Q 1344 -625 1503 -206 
L 1606 56 
L 191 3500 
L 800 3500 
L 1894 763 
L 2988 3500 
L 3597 3500 
L 2059 -325 
z
" transform="scale(0.015625)"/>
     </defs>
     <use xlink:href="#DejaVuSans-53"/>
     <use xlink:href="#DejaVuSans-74" x="63.476562"/>
     <use xlink:href="#DejaVuSans-61" x="102.685547"/>
     <use xlink:href="#DejaVuSans-74" x="163.964844"/>
     <use xlink:href="#DejaVuSans-69" x="203.173828"/>
     <use xlink:href="#DejaVuSans-6f" x="230.957031"/>
     <use xlink:href="#DejaVuSans-6e" x="292.138672"/>
     <use xlink:href="#DejaVuSans-61" x="355.517578"/>
     <use xlink:href="#DejaVuSans-72" x="416.796875"/>
     <use xlink:href="#DejaVuSans-79" x="457.910156"/>
     <use xlink:href="#DejaVuSans-20" x="517.089844"/>
     <use xlink:href="#DejaVuSans-74" x="548.876953"/>
     <use xlink:href="#DejaVuSans-61" x="588.085938"/>
     <use xlink:href="#DejaVuSans-72" x="649.365234"/>
     <use xlink:href="#DejaVuSans-67" x="688.728516"/>
     <use xlink:href="#DejaVuSans-65" x="752.205078"/>
     <use xlink:href="#DejaVuSans-74" x="813.728516"/>
     <use xlink:href="#DejaVuSans-20" x="852.9375"/>
     <use xlink:href="#DejaVuSans-62" x="884.724609"/>
     <use xlink:href="#DejaVuSans-6f" x="948.201172"/>
     <use xlink:href="#DejaVuSans-74" x="1009.382812"/>
     <use xlink:href="#DejaVuSans-3a" x="1048.591797"/>
     <use xlink:href="#DejaVuSans-20" x="1082.283203"/>
     <use xlink:href="#DejaVuSans-74" x="1114.070312"/>
     <use xlink:href="#DejaVuSans-72" x="1153.279297"/>
     <use xlink:href="#DejaVuSans-75" x="1194.392578"/>
     <use xlink:href="#DejaVuSans-65" x="1257.771484"/>
    </g>
    <!-- Packet drop prob: 0 -->
    <g transform="translate(288.071 214.593625) scale(0.08 -0.08)">
     <defs>
      <path id="DejaVuSans-50" d="M 1259 4147 
L 1259 2394 
L 2053 2394 
Q 2494 2394 2734 2622 
Q 2975 2850 2975 3272 
Q 2975 3691 2734 3919 
Q 2494 4147 2053 4147 
L 1259 4147 
z
M 628 4666 
L 2053 4666 
Q 2838 4666 3239 4311 
Q 3641 3956 3641 3272 
Q 3641 2581 3239 2228 
Q 2838 1875 2053 1875 
L 1259 1875 
L 1259 0 
L 628 0 
L 628 4666 
z
" transform="scale(0.015625)"/>
      <path id="DejaVuSans-63" d="M 3122 3366 
L 3122 2828 
Q 2878 2963 2633 3030 
Q 2388 3097 2138 3097 
Q 1578 3097 1268 2742 
Q 959 2388 959 1747 
Q 959 1106 1268 751 
Q 1578 397 2138 397 
Q 2388 397 2633 464 
Q 2878 531 3122 666 
L 3122 134 
Q 2881 22 2623 -34 
Q 2366 -91 2075 -91 
Q 1284 -91 818 406 
Q 353 903 353 1747 
Q 353 2603 823 3093 
Q 1294 3584 2113 3584 
Q 2378 3584 2631 3529 
Q 2884 3475 3122 3366 
z
" transform="scale(0.015625)"/>
      <path id="DejaVuSans-6b" d="M 581 4863 
L 1159 4863 
L 1159 1991 
L 2875 3500 
L 3609 3500 
L 1753 1863 
L 3688 0 
L 2938 0 
L 1159 1709 
L 1159 0 
L 581 0 
L 581 4863 
z
" transform="scale(0.015625)"/>
      <path id="DejaVuSans-64" d="M 2906 2969 
L 2906 4863 
L 3481 4863 
L 3481 0 
L 2906 0 
L 2906 525 
Q 2725 213 2448 61 
Q 2172 -91 1784 -91 
Q 1150 -91 751 415 
Q 353 922 353 1747 
Q 353 2572 751 3078 
Q 1150 3584 1784 3584 
Q 2172 3584 2448 3432 
Q 2725 3281 2906 2969 
z
M 947 1747 
Q 947 1113 1208 752 
Q 1469 391 1925 391 
Q 2381 391 2643 752 
Q 2906 1113 2906 1747 
Q 2906 2381 2643 2742 
Q 2381 3103 1925 3103 
Q 1469 3103 1208 2742 
Q 947 2381 947 1747 
z
" transform="scale(0.015625)"/>
     </defs>
     <use xlink:href="#DejaVuSans-50"/>
     <use xlink:href="#DejaVuSans-61" x="55.802734"/>
     <use xlink:href="#DejaVuSans-63" x="117.082031"/>
     <use xlink:href="#DejaVuSans-6b" x="172.0625"/>
     <use xlink:href="#DejaVuSans-65" x="226.347656"/>
     <use xlink:href="#DejaVuSans-74" x="287.871094"/>
     <use xlink:href="#DejaVuSans-20" x="327.080078"/>
     <use xlink:href="#DejaVuSans-64" x="358.867188"/>
     <use xlink:href="#DejaVuSans-72" x="422.34375"/>
     <use xlink:href="#DejaVuSans-6f" x="461.207031"/>
     <use xlink:href="#DejaVuSans-70" x="522.388672"/>
     <use xlink:href="#DejaVuSans-20" x="585.865234"/>
     <use xlink:href="#DejaVuSans-70" x="617.652344"/>
     <use xlink:href="#DejaVuSans-72" x="681.128906"/>
     <use xlink:href="#DejaVuSans-6f" x="719.992188"/>
     <use xlink:href="#DejaVuSans-62" x="781.173828"/>
     <use xlink:href="#DejaVuSans-3a" x="844.650391"/>
     <use xlink:href="#DejaVuSans-20" x="878.341797"/>
     <use xlink:href="#DejaVuSans-30" x="910.128906"/>
    </g>
    <!-- Delayed transmission prob: 0.5 -->
    <g transform="translate(288.071 223.551875) scale(0.08 -0.08)">
     <defs>
      <path id="DejaVuSans-44" d="M 1259 4147 
L 1259 519 
L 2022 519 
Q 2988 519 3436 956 
Q 3884 1394 3884 2338 
Q 3884 3275 3436 3711 
Q 2988 4147 2022 4147 
L 1259 4147 
z
M 628 4666 
L 1925 4666 
Q 3281 4666 3915 4102 
Q 4550 3538 4550 2338 
Q 4550 1131 3912 565 
Q 3275 0 1925 0 
L 628 0 
L 628 4666 
z
" transform="scale(0.015625)"/>
      <path id="DejaVuSans-2e" d="M 684 794 
L 1344 794 
L 1344 0 
L 684 0 
L 684 794 
z
" transform="scale(0.015625)"/>
     </defs>
     <use xlink:href="#DejaVuSans-44"/>
     <use xlink:href="#DejaVuSans-65" x="77.001953"/>
     <use xlink:href="#DejaVuSans-6c" x="138.525391"/>
     <use xlink:href="#DejaVuSans-61" x="166.308594"/>
     <use xlink:href="#DejaVuSans-79" x="227.587891"/>
     <use xlink:href="#DejaVuSans-65" x="286.767578"/>
     <use xlink:href="#DejaVuSans-64" x="348.291016"/>
     <use xlink:href="#DejaVuSans-20" x="411.767578"/>
     <use xlink:href="#DejaVuSans-74" x="443.554688"/>
     <use xlink:href="#DejaVuSans-72" x="482.763672"/>
     <use xlink:href="#DejaVuSans-61" x="523.876953"/>
     <use xlink:href="#DejaVuSans-6e" x="585.15625"/>
     <use xlink:href="#DejaVuSans-73" x="648.535156"/>
     <use xlink:href="#DejaVuSans-6d" x="700.634766"/>
     <use xlink:href="#DejaVuSans-69" x="798.046875"/>
     <use xlink:href="#DejaVuSans-73" x="825.830078"/>
     <use xlink:href="#DejaVuSans-73" x="877.929688"/>
     <use xlink:href="#DejaVuSans-69" x="930.029297"/>
     <use xlink:href="#DejaVuSans-6f" x="957.8125"/>
     <use xlink:href="#DejaVuSans-6e" x="1018.994141"/>
     <use xlink:href="#DejaVuSans-20" x="1082.373047"/>
     <use xlink:href="#DejaVuSans-70" x="1114.160156"/>
     <use xlink:href="#DejaVuSans-72" x="1177.636719"/>
     <use xlink:href="#DejaVuSans-6f" x="1216.5"/>
     <use xlink:href="#DejaVuSans-62" x="1277.681641"/>
     <use xlink:href="#DejaVuSans-3a" x="1341.158203"/>
     <use xlink:href="#DejaVuSans-20" x="1374.849609"/>
     <use xlink:href="#DejaVuSans-30" x="1406.636719"/>
     <use xlink:href="#DejaVuSans-2e" x="1470.259766"/>
     <use xlink:href="#DejaVuSans-35" x="1502.046875"/>
    </g>
    <!-- Number of timesteps for delayed transmission: 200 -->
    <g transform="translate(288.071 232.510125) scale(0.08 -0.08)">
     <defs>
      <path id="DejaVuSans-66" d="M 2375 4863 
L 2375 4384 
L 1825 4384 
Q 1516 4384 1395 4259 
Q 1275 4134 1275 3809 
L 1275 3500 
L 2222 3500 
L 2222 3053 
L 1275 3053 
L 1275 0 
L 697 0 
L 697 3053 
L 147 3053 
L 147 3500 
L 697 3500 
L 697 3744 
Q 697 4328 969 4595 
Q 1241 4863 1831 4863 
L 2375 4863 
z
" transform="scale(0.015625)"/>
     </defs>
     <use xlink:href="#DejaVuSans-4e"/>
     <use xlink:href="#DejaVuSans-75" x="74.804688"/>
     <use xlink:href="#DejaVuSans-6d" x="138.183594"/>
     <use xlink:href="#DejaVuSans-62" x="235.595703"/>
     <use xlink:href="#DejaVuSans-65" x="299.072266"/>
     <use xlink:href="#DejaVuSans-72" x="360.595703"/>
     <use xlink:href="#DejaVuSans-20" x="401.708984"/>
     <use xlink:href="#DejaVuSans-6f" x="433.496094"/>
     <use xlink:href="#DejaVuSans-66" x="494.677734"/>
     <use xlink:href="#DejaVuSans-20" x="529.882812"/>
     <use xlink:href="#DejaVuSans-74" x="561.669922"/>
     <use xlink:href="#DejaVuSans-69" x="600.878906"/>
     <use xlink:href="#DejaVuSans-6d" x="628.662109"/>
     <use xlink:href="#DejaVuSans-65" x="726.074219"/>
     <use xlink:href="#DejaVuSans-73" x="787.597656"/>
     <use xlink:href="#DejaVuSans-74" x="839.697266"/>
     <use xlink:href="#DejaVuSans-65" x="878.90625"/>
     <use xlink:href="#DejaVuSans-70" x="940.429688"/>
     <use xlink:href="#DejaVuSans-73" x="1003.90625"/>
     <use xlink:href="#DejaVuSans-20" x="1056.005859"/>
     <use xlink:href="#DejaVuSans-66" x="1087.792969"/>
     <use xlink:href="#DejaVuSans-6f" x="1122.998047"/>
     <use xlink:href="#DejaVuSans-72" x="1184.179688"/>
     <use xlink:href="#DejaVuSans-20" x="1225.292969"/>
     <use xlink:href="#DejaVuSans-64" x="1257.080078"/>
     <use xlink:href="#DejaVuSans-65" x="1320.556641"/>
     <use xlink:href="#DejaVuSans-6c" x="1382.080078"/>
     <use xlink:href="#DejaVuSans-61" x="1409.863281"/>
     <use xlink:href="#DejaVuSans-79" x="1471.142578"/>
     <use xlink:href="#DejaVuSans-65" x="1530.322266"/>
     <use xlink:href="#DejaVuSans-64" x="1591.845703"/>
     <use xlink:href="#DejaVuSans-20" x="1655.322266"/>
     <use xlink:href="#DejaVuSans-74" x="1687.109375"/>
     <use xlink:href="#DejaVuSans-72" x="1726.318359"/>
     <use xlink:href="#DejaVuSans-61" x="1767.431641"/>
     <use xlink:href="#DejaVuSans-6e" x="1828.710938"/>
     <use xlink:href="#DejaVuSans-73" x="1892.089844"/>
     <use xlink:href="#DejaVuSans-6d" x="1944.189453"/>
     <use xlink:href="#DejaVuSans-69" x="2041.601562"/>
     <use xlink:href="#DejaVuSans-73" x="2069.384766"/>
     <use xlink:href="#DejaVuSans-73" x="2121.484375"/>
     <use xlink:href="#DejaVuSans-69" x="2173.583984"/>
     <use xlink:href="#DejaVuSans-6f" x="2201.367188"/>
     <use xlink:href="#DejaVuSans-6e" x="2262.548828"/>
     <use xlink:href="#DejaVuSans-3a" x="2325.927734"/>
     <use xlink:href="#DejaVuSans-20" x="2359.619141"/>
     <use xlink:href="#DejaVuSans-32" x="2391.40625"/>
     <use xlink:href="#DejaVuSans-30" x="2455.029297"/>
     <use xlink:href="#DejaVuSans-30" x="2518.652344"/>
    </g>
    <!-- Number of starting bots: 50 -->
    <g transform="translate(288.071 241.468375) scale(0.08 -0.08)">
     <use xlink:href="#DejaVuSans-4e"/>
     <use xlink:href="#DejaVuSans-75" x="74.804688"/>
     <use xlink:href="#DejaVuSans-6d" x="138.183594"/>
     <use xlink:href="#DejaVuSans-62" x="235.595703"/>
     <use xlink:href="#DejaVuSans-65" x="299.072266"/>
     <use xlink:href="#DejaVuSans-72" x="360.595703"/>
     <use xlink:href="#DejaVuSans-20" x="401.708984"/>
     <use xlink:href="#DejaVuSans-6f" x="433.496094"/>
     <use xlink:href="#DejaVuSans-66" x="494.677734"/>
     <use xlink:href="#DejaVuSans-20" x="529.882812"/>
     <use xlink:href="#DejaVuSans-73" x="561.669922"/>
     <use xlink:href="#DejaVuSans-74" x="613.769531"/>
     <use xlink:href="#DejaVuSans-61" x="652.978516"/>
     <use xlink:href="#DejaVuSans-72" x="714.257812"/>
     <use xlink:href="#DejaVuSans-74" x="755.371094"/>
     <use xlink:href="#DejaVuSans-69" x="794.580078"/>
     <use xlink:href="#DejaVuSans-6e" x="822.363281"/>
     <use xlink:href="#DejaVuSans-67" x="885.742188"/>
     <use xlink:href="#DejaVuSans-20" x="949.21875"/>
     <use xlink:href="#DejaVuSans-62" x="981.005859"/>
     <use xlink:href="#DejaVuSans-6f" x="1044.482422"/>
     <use xlink:href="#DejaVuSans-74" x="1105.664062"/>
     <use xlink:href="#DejaVuSans-73" x="1144.873047"/>
     <use xlink:href="#DejaVuSans-3a" x="1196.972656"/>
     <use xlink:href="#DejaVuSans-20" x="1230.664062"/>
     <use xlink:href="#DejaVuSans-35" x="1262.451172"/>
     <use xlink:href="#DejaVuSans-30" x="1326.074219"/>
    </g>
    <!-- Velocity: 5 -->
    <g transform="translate(288.071 250.426625) scale(0.08 -0.08)">
     <defs>
      <path id="DejaVuSans-56" d="M 1831 0 
L 50 4666 
L 709 4666 
L 2188 738 
L 3669 4666 
L 4325 4666 
L 2547 0 
L 1831 0 
z
" transform="scale(0.015625)"/>
     </defs>
     <use xlink:href="#DejaVuSans-56"/>
     <use xlink:href="#DejaVuSans-65" x="60.658203"/>
     <use xlink:href="#DejaVuSans-6c" x="122.181641"/>
     <use xlink:href="#DejaVuSans-6f" x="149.964844"/>
     <use xlink:href="#DejaVuSans-63" x="211.146484"/>
     <use xlink:href="#DejaVuSans-69" x="266.126953"/>
     <use xlink:href="#DejaVuSans-74" x="293.910156"/>
     <use xlink:href="#DejaVuSans-79" x="333.119141"/>
     <use xlink:href="#DejaVuSans-3a" x="385.048828"/>
     <use xlink:href="#DejaVuSans-20" x="418.740234"/>
     <use xlink:href="#DejaVuSans-35" x="450.527344"/>
    </g>
    <!-- Delta: 0.1 -->
    <g transform="translate(288.071 259.384875) scale(0.08 -0.08)">
     <use xlink:href="#DejaVuSans-44"/>
     <use xlink:href="#DejaVuSans-65" x="77.001953"/>
     <use xlink:href="#DejaVuSans-6c" x="138.525391"/>
     <use xlink:href="#DejaVuSans-74" x="166.308594"/>
     <use xlink:href="#DejaVuSans-61" x="205.517578"/>
     <use xlink:href="#DejaVuSans-3a" x="266.796875"/>
     <use xlink:href="#DejaVuSans-20" x="300.488281"/>
     <use xlink:href="#DejaVuSans-30" x="332.275391"/>
     <use xlink:href="#DejaVuSans-2e" x="395.898438"/>
     <use xlink:href="#DejaVuSans-31" x="427.685547"/>
    </g>
    <!-- Alpha: 10 -->
    <g transform="translate(288.071 268.343125) scale(0.08 -0.08)">
     <defs>
      <path id="DejaVuSans-41" d="M 2188 4044 
L 1331 1722 
L 3047 1722 
L 2188 4044 
z
M 1831 4666 
L 2547 4666 
L 4325 0 
L 3669 0 
L 3244 1197 
L 1141 1197 
L 716 0 
L 50 0 
L 1831 4666 
z
" transform="scale(0.015625)"/>
     </defs>
     <use xlink:href="#DejaVuSans-41"/>
     <use xlink:href="#DejaVuSans-6c" x="68.408203"/>
     <use xlink:href="#DejaVuSans-70" x="96.191406"/>
     <use xlink:href="#DejaVuSans-68" x="159.667969"/>
     <use xlink:href="#DejaVuSans-61" x="223.046875"/>
     <use xlink:href="#DejaVuSans-3a" x="284.326172"/>
     <use xlink:href="#DejaVuSans-20" x="318.017578"/>
     <use xlink:href="#DejaVuSans-31" x="349.804688"/>
     <use xlink:href="#DejaVuSans-30" x="413.427734"/>
    </g>
    <!-- Maximum hop count: 99 -->
    <g transform="translate(288.071 277.301375) scale(0.08 -0.08)">
     <defs>
      <path id="DejaVuSans-4d" d="M 628 4666 
L 1569 4666 
L 2759 1491 
L 3956 4666 
L 4897 4666 
L 4897 0 
L 4281 0 
L 4281 4097 
L 3078 897 
L 2444 897 
L 1241 4097 
L 1241 0 
L 628 0 
L 628 4666 
z
" transform="scale(0.015625)"/>
      <path id="DejaVuSans-39" d="M 703 97 
L 703 672 
Q 941 559 1184 500 
Q 1428 441 1663 441 
Q 2288 441 2617 861 
Q 2947 1281 2994 2138 
Q 2813 1869 2534 1725 
Q 2256 1581 1919 1581 
Q 1219 1581 811 2004 
Q 403 2428 403 3163 
Q 403 3881 828 4315 
Q 1253 4750 1959 4750 
Q 2769 4750 3195 4129 
Q 3622 3509 3622 2328 
Q 3622 1225 3098 567 
Q 2575 -91 1691 -91 
Q 1453 -91 1209 -44 
Q 966 3 703 97 
z
M 1959 2075 
Q 2384 2075 2632 2365 
Q 2881 2656 2881 3163 
Q 2881 3666 2632 3958 
Q 2384 4250 1959 4250 
Q 1534 4250 1286 3958 
Q 1038 3666 1038 3163 
Q 1038 2656 1286 2365 
Q 1534 2075 1959 2075 
z
" transform="scale(0.015625)"/>
     </defs>
     <use xlink:href="#DejaVuSans-4d"/>
     <use xlink:href="#DejaVuSans-61" x="86.279297"/>
     <use xlink:href="#DejaVuSans-78" x="147.558594"/>
     <use xlink:href="#DejaVuSans-69" x="206.738281"/>
     <use xlink:href="#DejaVuSans-6d" x="234.521484"/>
     <use xlink:href="#DejaVuSans-75" x="331.933594"/>
     <use xlink:href="#DejaVuSans-6d" x="395.3125"/>
     <use xlink:href="#DejaVuSans-20" x="492.724609"/>
     <use xlink:href="#DejaVuSans-68" x="524.511719"/>
     <use xlink:href="#DejaVuSans-6f" x="587.890625"/>
     <use xlink:href="#DejaVuSans-70" x="649.072266"/>
     <use xlink:href="#DejaVuSans-20" x="712.548828"/>
     <use xlink:href="#DejaVuSans-63" x="744.335938"/>
     <use xlink:href="#DejaVuSans-6f" x="799.316406"/>
     <use xlink:href="#DejaVuSans-75" x="860.498047"/>
     <use xlink:href="#DejaVuSans-6e" x="923.876953"/>
     <use xlink:href="#DejaVuSans-74" x="987.255859"/>
     <use xlink:href="#DejaVuSans-3a" x="1026.464844"/>
     <use xlink:href="#DejaVuSans-20" x="1060.15625"/>
     <use xlink:href="#DejaVuSans-39" x="1091.943359"/>
     <use xlink:href="#DejaVuSans-39" x="1155.566406"/>
    </g>
    <!-- Forgetting enabled: true -->
    <g transform="translate(288.071 286.259625) scale(0.08 -0.08)">
     <defs>
      <path id="DejaVuSans-46" d="M 628 4666 
L 3309 4666 
L 3309 4134 
L 1259 4134 
L 1259 2759 
L 3109 2759 
L 3109 2228 
L 1259 2228 
L 1259 0 
L 628 0 
L 628 4666 
z
" transform="scale(0.015625)"/>
     </defs>
     <use xlink:href="#DejaVuSans-46"/>
     <use xlink:href="#DejaVuSans-6f" x="53.894531"/>
     <use xlink:href="#DejaVuSans-72" x="115.076172"/>
     <use xlink:href="#DejaVuSans-67" x="154.439453"/>
     <use xlink:href="#DejaVuSans-65" x="217.916016"/>
     <use xlink:href="#DejaVuSans-74" x="279.439453"/>
     <use xlink:href="#DejaVuSans-74" x="318.648438"/>
     <use xlink:href="#DejaVuSans-69" x="357.857422"/>
     <use xlink:href="#DejaVuSans-6e" x="385.640625"/>
     <use xlink:href="#DejaVuSans-67" x="449.019531"/>
     <use xlink:href="#DejaVuSans-20" x="512.496094"/>
     <use xlink:href="#DejaVuSans-65" x="544.283203"/>
     <use xlink:href="#DejaVuSans-6e" x="605.806641"/>
     <use xlink:href="#DejaVuSans-61" x="669.185547"/>
     <use xlink:href="#DejaVuSans-62" x="730.464844"/>
     <use xlink:href="#DejaVuSans-6c" x="793.941406"/>
     <use xlink:href="#DejaVuSans-65" x="821.724609"/>
     <use xlink:href="#DejaVuSans-64" x="883.248047"/>
     <use xlink:href="#DejaVuSans-3a" x="946.724609"/>
     <use xlink:href="#DejaVuSans-20" x="980.416016"/>
     <use xlink:href="#DejaVuSans-74" x="1012.203125"/>
     <use xlink:href="#DejaVuSans-72" x="1051.412109"/>
     <use xlink:href="#DejaVuSans-75" x="1092.525391"/>
     <use xlink:href="#DejaVuSans-65" x="1155.904297"/>
    </g>
    <!-- Time between forgetting: 500timesteps -->
    <g transform="translate(288.071 295.217875) scale(0.08 -0.08)">
     <defs>
      <path id="DejaVuSans-77" d="M 269 3500 
L 844 3500 
L 1563 769 
L 2278 3500 
L 2956 3500 
L 3675 769 
L 4391 3500 
L 4966 3500 
L 4050 0 
L 3372 0 
L 2619 2869 
L 1863 0 
L 1184 0 
L 269 3500 
z
" transform="scale(0.015625)"/>
     </defs>
     <use xlink:href="#DejaVuSans-54"/>
     <use xlink:href="#DejaVuSans-69" x="57.958984"/>
     <use xlink:href="#DejaVuSans-6d" x="85.742188"/>
     <use xlink:href="#DejaVuSans-65" x="183.154297"/>
     <use xlink:href="#DejaVuSans-20" x="244.677734"/>
     <use xlink:href="#DejaVuSans-62" x="276.464844"/>
     <use xlink:href="#DejaVuSans-65" x="339.941406"/>
     <use xlink:href="#DejaVuSans-74" x="401.464844"/>
     <use xlink:href="#DejaVuSans-77" x="440.673828"/>
     <use xlink:href="#DejaVuSans-65" x="522.460938"/>
     <use xlink:href="#DejaVuSans-65" x="583.984375"/>
     <use xlink:href="#DejaVuSans-6e" x="645.507812"/>
     <use xlink:href="#DejaVuSans-20" x="708.886719"/>
     <use xlink:href="#DejaVuSans-66" x="740.673828"/>
     <use xlink:href="#DejaVuSans-6f" x="775.878906"/>
     <use xlink:href="#DejaVuSans-72" x="837.060547"/>
     <use xlink:href="#DejaVuSans-67" x="876.423828"/>
     <use xlink:href="#DejaVuSans-65" x="939.900391"/>
     <use xlink:href="#DejaVuSans-74" x="1001.423828"/>
     <use xlink:href="#DejaVuSans-74" x="1040.632812"/>
     <use xlink:href="#DejaVuSans-69" x="1079.841797"/>
     <use xlink:href="#DejaVuSans-6e" x="1107.625"/>
     <use xlink:href="#DejaVuSans-67" x="1171.003906"/>
     <use xlink:href="#DejaVuSans-3a" x="1234.480469"/>
     <use xlink:href="#DejaVuSans-20" x="1268.171875"/>
     <use xlink:href="#DejaVuSans-35" x="1299.958984"/>
     <use xlink:href="#DejaVuSans-30" x="1363.582031"/>
     <use xlink:href="#DejaVuSans-30" x="1427.205078"/>
     <use xlink:href="#DejaVuSans-74" x="1490.828125"/>
     <use xlink:href="#DejaVuSans-69" x="1530.037109"/>
     <use xlink:href="#DejaVuSans-6d" x="1557.820312"/>
     <use xlink:href="#DejaVuSans-65" x="1655.232422"/>
     <use xlink:href="#DejaVuSans-73" x="1716.755859"/>
     <use xlink:href="#DejaVuSans-74" x="1768.855469"/>
     <use xlink:href="#DejaVuSans-65" x="1808.064453"/>
     <use xlink:href="#DejaVuSans-70" x="1869.587891"/>
     <use xlink:href="#DejaVuSans-73" x="1933.064453"/>
    </g>
    <!--  -->
    <g transform="translate(288.071 304.176125) scale(0.08 -0.08)"/>
   </g>
   <g id="text_16">
    <!-- Num bots in target agent's zone at end of simulation -->
    <g transform="translate(1.7875 19.44) scale(0.12 -0.12)">
     <defs>
      <path id="DejaVuSans-27" d="M 1147 4666 
L 1147 2931 
L 616 2931 
L 616 4666 
L 1147 4666 
z
" transform="scale(0.015625)"/>
     </defs>
     <use xlink:href="#DejaVuSans-4e"/>
     <use xlink:href="#DejaVuSans-75" x="74.804688"/>
     <use xlink:href="#DejaVuSans-6d" x="138.183594"/>
     <use xlink:href="#DejaVuSans-20" x="235.595703"/>
     <use xlink:href="#DejaVuSans-62" x="267.382812"/>
     <use xlink:href="#DejaVuSans-6f" x="330.859375"/>
     <use xlink:href="#DejaVuSans-74" x="392.041016"/>
     <use xlink:href="#DejaVuSans-73" x="431.25"/>
     <use xlink:href="#DejaVuSans-20" x="483.349609"/>
     <use xlink:href="#DejaVuSans-69" x="515.136719"/>
     <use xlink:href="#DejaVuSans-6e" x="542.919922"/>
     <use xlink:href="#DejaVuSans-20" x="606.298828"/>
     <use xlink:href="#DejaVuSans-74" x="638.085938"/>
     <use xlink:href="#DejaVuSans-61" x="677.294922"/>
     <use xlink:href="#DejaVuSans-72" x="738.574219"/>
     <use xlink:href="#DejaVuSans-67" x="777.9375"/>
     <use xlink:href="#DejaVuSans-65" x="841.414062"/>
     <use xlink:href="#DejaVuSans-74" x="902.9375"/>
     <use xlink:href="#DejaVuSans-20" x="942.146484"/>
     <use xlink:href="#DejaVuSans-61" x="973.933594"/>
     <use xlink:href="#DejaVuSans-67" x="1035.212891"/>
     <use xlink:href="#DejaVuSans-65" x="1098.689453"/>
     <use xlink:href="#DejaVuSans-6e" x="1160.212891"/>
     <use xlink:href="#DejaVuSans-74" x="1223.591797"/>
     <use xlink:href="#DejaVuSans-27" x="1262.800781"/>
     <use xlink:href="#DejaVuSans-73" x="1290.291016"/>
     <use xlink:href="#DejaVuSans-20" x="1342.390625"/>
     <use xlink:href="#DejaVuSans-7a" x="1374.177734"/>
     <use xlink:href="#DejaVuSans-6f" x="1426.667969"/>
     <use xlink:href="#DejaVuSans-6e" x="1487.849609"/>
     <use xlink:href="#DejaVuSans-65" x="1551.228516"/>
     <use xlink:href="#DejaVuSans-20" x="1612.751953"/>
     <use xlink:href="#DejaVuSans-61" x="1644.539062"/>
     <use xlink:href="#DejaVuSans-74" x="1705.818359"/>
     <use xlink:href="#DejaVuSans-20" x="1745.027344"/>
     <use xlink:href="#DejaVuSans-65" x="1776.814453"/>
     <use xlink:href="#DejaVuSans-6e" x="1838.337891"/>
     <use xlink:href="#DejaVuSans-64" x="1901.716797"/>
     <use xlink:href="#DejaVuSans-20" x="1965.193359"/>
     <use xlink:href="#DejaVuSans-6f" x="1996.980469"/>
     <use xlink:href="#DejaVuSans-66" x="2058.162109"/>
     <use xlink:href="#DejaVuSans-20" x="2093.367188"/>
     <use xlink:href="#DejaVuSans-73" x="2125.154297"/>
     <use xlink:href="#DejaVuSans-69" x="2177.253906"/>
     <use xlink:href="#DejaVuSans-6d" x="2205.037109"/>
     <use xlink:href="#DejaVuSans-75" x="2302.449219"/>
     <use xlink:href="#DejaVuSans-6c" x="2365.828125"/>
     <use xlink:href="#DejaVuSans-61" x="2393.611328"/>
     <use xlink:href="#DejaVuSans-74" x="2454.890625"/>
     <use xlink:href="#DejaVuSans-69" x="2494.099609"/>
     <use xlink:href="#DejaVuSans-6f" x="2521.882812"/>
     <use xlink:href="#DejaVuSans-6e" x="2583.064453"/>
    </g>
   </g>
   <g id="legend_1">
    <g id="patch_7">
     <path d="M 51.66 106.830625 
L 112.5475 106.830625 
Q 114.5475 106.830625 114.5475 104.830625 
L 114.5475 32.44 
Q 114.5475 30.44 112.5475 30.44 
L 51.66 30.44 
Q 49.66 30.44 49.66 32.44 
L 49.66 104.830625 
Q 49.66 106.830625 51.66 106.830625 
z
" style="fill: #ffffff; opacity: 0.8; stroke: #cccccc; stroke-linejoin: miter"/>
    </g>
    <g id="line2d_30">
     <path d="M 53.66 38.538437 
L 63.66 38.538437 
L 73.66 38.538437 
" style="fill: none; stroke: #1f77b4; stroke-width: 1.5; stroke-linecap: square"/>
    </g>
    <g id="text_17">
     <!-- data1 -->
     <g transform="translate(81.66 42.038437) scale(0.1 -0.1)">
      <use xlink:href="#DejaVuSans-64"/>
      <use xlink:href="#DejaVuSans-61" x="63.476562"/>
      <use xlink:href="#DejaVuSans-74" x="124.755859"/>
      <use xlink:href="#DejaVuSans-61" x="163.964844"/>
      <use xlink:href="#DejaVuSans-31" x="225.244141"/>
     </g>
    </g>
    <g id="line2d_31">
     <path d="M 53.66 53.216562 
L 63.66 53.216562 
L 73.66 53.216562 
" style="fill: none; stroke: #ff7f0e; stroke-width: 1.5; stroke-linecap: square"/>
    </g>
    <g id="text_18">
     <!-- data2 -->
     <g transform="translate(81.66 56.716562) scale(0.1 -0.1)">
      <use xlink:href="#DejaVuSans-64"/>
      <use xlink:href="#DejaVuSans-61" x="63.476562"/>
      <use xlink:href="#DejaVuSans-74" x="124.755859"/>
      <use xlink:href="#DejaVuSans-61" x="163.964844"/>
      <use xlink:href="#DejaVuSans-32" x="225.244141"/>
     </g>
    </g>
    <g id="line2d_32">
     <path d="M 53.66 67.894687 
L 63.66 67.894687 
L 73.66 67.894687 
" style="fill: none; stroke: #2ca02c; stroke-width: 1.5; stroke-linecap: square"/>
    </g>
    <g id="text_19">
     <!-- data3 -->
     <g transform="translate(81.66 71.394687) scale(0.1 -0.1)">
      <use xlink:href="#DejaVuSans-64"/>
      <use xlink:href="#DejaVuSans-61" x="63.476562"/>
      <use xlink:href="#DejaVuSans-74" x="124.755859"/>
      <use xlink:href="#DejaVuSans-61" x="163.964844"/>
      <use xlink:href="#DejaVuSans-33" x="225.244141"/>
     </g>
    </g>
    <g id="line2d_33">
     <path d="M 53.66 82.572812 
L 63.66 82.572812 
L 73.66 82.572812 
" style="fill: none; stroke: #d62728; stroke-width: 1.5; stroke-linecap: square"/>
    </g>
    <g id="text_20">
     <!-- data4 -->
     <g transform="translate(81.66 86.072812) scale(0.1 -0.1)">
      <use xlink:href="#DejaVuSans-64"/>
      <use xlink:href="#DejaVuSans-61" x="63.476562"/>
      <use xlink:href="#DejaVuSans-74" x="124.755859"/>
      <use xlink:href="#DejaVuSans-61" x="163.964844"/>
      <use xlink:href="#DejaVuSans-34" x="225.244141"/>
     </g>
    </g>
    <g id="line2d_34">
     <path d="M 53.66 97.250937 
L 63.66 97.250937 
L 73.66 97.250937 
" style="fill: none; stroke: #9467bd; stroke-width: 1.5; stroke-linecap: square"/>
    </g>
    <g id="text_21">
     <!-- data5 -->
     <g transform="translate(81.66 100.750937) scale(0.1 -0.1)">
      <use xlink:href="#DejaVuSans-64"/>
      <use xlink:href="#DejaVuSans-61" x="63.476562"/>
      <use xlink:href="#DejaVuSans-74" x="124.755859"/>
      <use xlink:href="#DejaVuSans-61" x="163.964844"/>
      <use xlink:href="#DejaVuSans-35" x="225.244141"/>
     </g>
    </g>
   </g>
  </g>
 </g>
 <defs>
  <clipPath id="p26c2e1f42a">
   <rect x="44.66" y="25.44" width="231.82" height="436.6"/>
  </clipPath>
 </defs>
</svg>
