<?xml version="1.0" encoding="utf-8" standalone="no"?>
<!DOCTYPE svg PUBLIC "-//W3C//DTD SVG 1.1//EN"
  "http://www.w3.org/Graphics/SVG/1.1/DTD/svg11.dtd">
<svg xmlns:xlink="http://www.w3.org/1999/xlink" width="504pt" height="504pt" viewBox="0 0 504 504" xmlns="http://www.w3.org/2000/svg" version="1.1">
 <metadata>
  <rdf:RDF xmlns:dc="http://purl.org/dc/elements/1.1/" xmlns:cc="http://creativecommons.org/ns#" xmlns:rdf="http://www.w3.org/1999/02/22-rdf-syntax-ns#">
   <cc:Work>
    <dc:type rdf:resource="http://purl.org/dc/dcmitype/StillImage"/>
    <dc:date>2023-08-08T15:52:56.047455</dc:date>
    <dc:format>image/svg+xml</dc:format>
    <dc:creator>
     <cc:Agent>
      <dc:title>Matplotlib v3.7.1, https://matplotlib.org/</dc:title>
     </cc:Agent>
    </dc:creator>
   </cc:Work>
  </rdf:RDF>
 </metadata>
 <defs>
  <style type="text/css">*{stroke-linejoin: round; stroke-linecap: butt}</style>
 </defs>
 <g id="figure_1">
  <g id="patch_1">
   <path d="M 0 504 
L 504 504 
L 504 0 
L 0 0 
z
" style="fill: #ffffff"/>
  </g>
  <g id="axes_1">
   <g id="patch_2">
    <path d="M 44.66 462.04 
L 286.74 462.04 
L 286.74 25.44 
L 44.66 25.44 
z
" style="fill: #ffffff"/>
   </g>
   <g id="matplotlib.axis_1">
    <g id="xtick_1">
     <g id="line2d_1">
      <path d="M 55.663636 462.04 
L 55.663636 25.44 
" clip-path="url(#p40e4c8c6be)" style="fill: none; stroke: #b0b0b0; stroke-width: 0.8; stroke-linecap: square"/>
     </g>
     <g id="line2d_2">
      <defs>
       <path id="ma1dc7343b2" d="M 0 0 
L 0 3.5 
" style="stroke: #000000; stroke-width: 0.8"/>
      </defs>
      <g>
       <use xlink:href="#ma1dc7343b2" x="55.663636" y="462.04" style="stroke: #000000; stroke-width: 0.8"/>
      </g>
     </g>
     <g id="text_1">
      <!-- 0 -->
      <g transform="translate(52.482386 476.638438) scale(0.1 -0.1)">
       <defs>
        <path id="DejaVuSans-30" d="M 2034 4250 
Q 1547 4250 1301 3770 
Q 1056 3291 1056 2328 
Q 1056 1369 1301 889 
Q 1547 409 2034 409 
Q 2525 409 2770 889 
Q 3016 1369 3016 2328 
Q 3016 3291 2770 3770 
Q 2525 4250 2034 4250 
z
M 2034 4750 
Q 2819 4750 3233 4129 
Q 3647 3509 3647 2328 
Q 3647 1150 3233 529 
Q 2819 -91 2034 -91 
Q 1250 -91 836 529 
Q 422 1150 422 2328 
Q 422 3509 836 4129 
Q 1250 4750 2034 4750 
z
" transform="scale(0.015625)"/>
       </defs>
       <use xlink:href="#DejaVuSans-30"/>
      </g>
     </g>
    </g>
    <g id="xtick_2">
     <g id="line2d_3">
      <path d="M 92.354655 462.04 
L 92.354655 25.44 
" clip-path="url(#p40e4c8c6be)" style="fill: none; stroke: #b0b0b0; stroke-width: 0.8; stroke-linecap: square"/>
     </g>
     <g id="line2d_4">
      <g>
       <use xlink:href="#ma1dc7343b2" x="92.354655" y="462.04" style="stroke: #000000; stroke-width: 0.8"/>
      </g>
     </g>
     <g id="text_2">
      <!-- 500 -->
      <g transform="translate(82.810905 476.638438) scale(0.1 -0.1)">
       <defs>
        <path id="DejaVuSans-35" d="M 691 4666 
L 3169 4666 
L 3169 4134 
L 1269 4134 
L 1269 2991 
Q 1406 3038 1543 3061 
Q 1681 3084 1819 3084 
Q 2600 3084 3056 2656 
Q 3513 2228 3513 1497 
Q 3513 744 3044 326 
Q 2575 -91 1722 -91 
Q 1428 -91 1123 -41 
Q 819 9 494 109 
L 494 744 
Q 775 591 1075 516 
Q 1375 441 1709 441 
Q 2250 441 2565 725 
Q 2881 1009 2881 1497 
Q 2881 1984 2565 2268 
Q 2250 2553 1709 2553 
Q 1456 2553 1204 2497 
Q 953 2441 691 2322 
L 691 4666 
z
" transform="scale(0.015625)"/>
       </defs>
       <use xlink:href="#DejaVuSans-35"/>
       <use xlink:href="#DejaVuSans-30" x="63.623047"/>
       <use xlink:href="#DejaVuSans-30" x="127.246094"/>
      </g>
     </g>
    </g>
    <g id="xtick_3">
     <g id="line2d_5">
      <path d="M 129.045673 462.04 
L 129.045673 25.44 
" clip-path="url(#p40e4c8c6be)" style="fill: none; stroke: #b0b0b0; stroke-width: 0.8; stroke-linecap: square"/>
     </g>
     <g id="line2d_6">
      <g>
       <use xlink:href="#ma1dc7343b2" x="129.045673" y="462.04" style="stroke: #000000; stroke-width: 0.8"/>
      </g>
     </g>
     <g id="text_3">
      <!-- 1000 -->
      <g transform="translate(116.320673 476.638438) scale(0.1 -0.1)">
       <defs>
        <path id="DejaVuSans-31" d="M 794 531 
L 1825 531 
L 1825 4091 
L 703 3866 
L 703 4441 
L 1819 4666 
L 2450 4666 
L 2450 531 
L 3481 531 
L 3481 0 
L 794 0 
L 794 531 
z
" transform="scale(0.015625)"/>
       </defs>
       <use xlink:href="#DejaVuSans-31"/>
       <use xlink:href="#DejaVuSans-30" x="63.623047"/>
       <use xlink:href="#DejaVuSans-30" x="127.246094"/>
       <use xlink:href="#DejaVuSans-30" x="190.869141"/>
      </g>
     </g>
    </g>
    <g id="xtick_4">
     <g id="line2d_7">
      <path d="M 165.736691 462.04 
L 165.736691 25.44 
" clip-path="url(#p40e4c8c6be)" style="fill: none; stroke: #b0b0b0; stroke-width: 0.8; stroke-linecap: square"/>
     </g>
     <g id="line2d_8">
      <g>
       <use xlink:href="#ma1dc7343b2" x="165.736691" y="462.04" style="stroke: #000000; stroke-width: 0.8"/>
      </g>
     </g>
     <g id="text_4">
      <!-- 1500 -->
      <g transform="translate(153.011691 476.638438) scale(0.1 -0.1)">
       <use xlink:href="#DejaVuSans-31"/>
       <use xlink:href="#DejaVuSans-35" x="63.623047"/>
       <use xlink:href="#DejaVuSans-30" x="127.246094"/>
       <use xlink:href="#DejaVuSans-30" x="190.869141"/>
      </g>
     </g>
    </g>
    <g id="xtick_5">
     <g id="line2d_9">
      <path d="M 202.427709 462.04 
L 202.427709 25.44 
" clip-path="url(#p40e4c8c6be)" style="fill: none; stroke: #b0b0b0; stroke-width: 0.8; stroke-linecap: square"/>
     </g>
     <g id="line2d_10">
      <g>
       <use xlink:href="#ma1dc7343b2" x="202.427709" y="462.04" style="stroke: #000000; stroke-width: 0.8"/>
      </g>
     </g>
     <g id="text_5">
      <!-- 2000 -->
      <g transform="translate(189.702709 476.638438) scale(0.1 -0.1)">
       <defs>
        <path id="DejaVuSans-32" d="M 1228 531 
L 3431 531 
L 3431 0 
L 469 0 
L 469 531 
Q 828 903 1448 1529 
Q 2069 2156 2228 2338 
Q 2531 2678 2651 2914 
Q 2772 3150 2772 3378 
Q 2772 3750 2511 3984 
Q 2250 4219 1831 4219 
Q 1534 4219 1204 4116 
Q 875 4013 500 3803 
L 500 4441 
Q 881 4594 1212 4672 
Q 1544 4750 1819 4750 
Q 2544 4750 2975 4387 
Q 3406 4025 3406 3419 
Q 3406 3131 3298 2873 
Q 3191 2616 2906 2266 
Q 2828 2175 2409 1742 
Q 1991 1309 1228 531 
z
" transform="scale(0.015625)"/>
       </defs>
       <use xlink:href="#DejaVuSans-32"/>
       <use xlink:href="#DejaVuSans-30" x="63.623047"/>
       <use xlink:href="#DejaVuSans-30" x="127.246094"/>
       <use xlink:href="#DejaVuSans-30" x="190.869141"/>
      </g>
     </g>
    </g>
    <g id="xtick_6">
     <g id="line2d_11">
      <path d="M 239.118727 462.04 
L 239.118727 25.44 
" clip-path="url(#p40e4c8c6be)" style="fill: none; stroke: #b0b0b0; stroke-width: 0.8; stroke-linecap: square"/>
     </g>
     <g id="line2d_12">
      <g>
       <use xlink:href="#ma1dc7343b2" x="239.118727" y="462.04" style="stroke: #000000; stroke-width: 0.8"/>
      </g>
     </g>
     <g id="text_6">
      <!-- 2500 -->
      <g transform="translate(226.393727 476.638438) scale(0.1 -0.1)">
       <use xlink:href="#DejaVuSans-32"/>
       <use xlink:href="#DejaVuSans-35" x="63.623047"/>
       <use xlink:href="#DejaVuSans-30" x="127.246094"/>
       <use xlink:href="#DejaVuSans-30" x="190.869141"/>
      </g>
     </g>
    </g>
    <g id="xtick_7">
     <g id="line2d_13">
      <path d="M 275.809746 462.04 
L 275.809746 25.44 
" clip-path="url(#p40e4c8c6be)" style="fill: none; stroke: #b0b0b0; stroke-width: 0.8; stroke-linecap: square"/>
     </g>
     <g id="line2d_14">
      <g>
       <use xlink:href="#ma1dc7343b2" x="275.809746" y="462.04" style="stroke: #000000; stroke-width: 0.8"/>
      </g>
     </g>
     <g id="text_7">
      <!-- 3000 -->
      <g transform="translate(263.084746 476.638438) scale(0.1 -0.1)">
       <defs>
        <path id="DejaVuSans-33" d="M 2597 2516 
Q 3050 2419 3304 2112 
Q 3559 1806 3559 1356 
Q 3559 666 3084 287 
Q 2609 -91 1734 -91 
Q 1441 -91 1130 -33 
Q 819 25 488 141 
L 488 750 
Q 750 597 1062 519 
Q 1375 441 1716 441 
Q 2309 441 2620 675 
Q 2931 909 2931 1356 
Q 2931 1769 2642 2001 
Q 2353 2234 1838 2234 
L 1294 2234 
L 1294 2753 
L 1863 2753 
Q 2328 2753 2575 2939 
Q 2822 3125 2822 3475 
Q 2822 3834 2567 4026 
Q 2313 4219 1838 4219 
Q 1578 4219 1281 4162 
Q 984 4106 628 3988 
L 628 4550 
Q 988 4650 1302 4700 
Q 1616 4750 1894 4750 
Q 2613 4750 3031 4423 
Q 3450 4097 3450 3541 
Q 3450 3153 3228 2886 
Q 3006 2619 2597 2516 
z
" transform="scale(0.015625)"/>
       </defs>
       <use xlink:href="#DejaVuSans-33"/>
       <use xlink:href="#DejaVuSans-30" x="63.623047"/>
       <use xlink:href="#DejaVuSans-30" x="127.246094"/>
       <use xlink:href="#DejaVuSans-30" x="190.869141"/>
      </g>
     </g>
    </g>
    <g id="text_8">
     <!-- Time step -->
     <g transform="translate(141.061719 490.316563) scale(0.1 -0.1)">
      <defs>
       <path id="DejaVuSans-54" d="M -19 4666 
L 3928 4666 
L 3928 4134 
L 2272 4134 
L 2272 0 
L 1638 0 
L 1638 4134 
L -19 4134 
L -19 4666 
z
" transform="scale(0.015625)"/>
       <path id="DejaVuSans-69" d="M 603 3500 
L 1178 3500 
L 1178 0 
L 603 0 
L 603 3500 
z
M 603 4863 
L 1178 4863 
L 1178 4134 
L 603 4134 
L 603 4863 
z
" transform="scale(0.015625)"/>
       <path id="DejaVuSans-6d" d="M 3328 2828 
Q 3544 3216 3844 3400 
Q 4144 3584 4550 3584 
Q 5097 3584 5394 3201 
Q 5691 2819 5691 2113 
L 5691 0 
L 5113 0 
L 5113 2094 
Q 5113 2597 4934 2840 
Q 4756 3084 4391 3084 
Q 3944 3084 3684 2787 
Q 3425 2491 3425 1978 
L 3425 0 
L 2847 0 
L 2847 2094 
Q 2847 2600 2669 2842 
Q 2491 3084 2119 3084 
Q 1678 3084 1418 2786 
Q 1159 2488 1159 1978 
L 1159 0 
L 581 0 
L 581 3500 
L 1159 3500 
L 1159 2956 
Q 1356 3278 1631 3431 
Q 1906 3584 2284 3584 
Q 2666 3584 2933 3390 
Q 3200 3197 3328 2828 
z
" transform="scale(0.015625)"/>
       <path id="DejaVuSans-65" d="M 3597 1894 
L 3597 1613 
L 953 1613 
Q 991 1019 1311 708 
Q 1631 397 2203 397 
Q 2534 397 2845 478 
Q 3156 559 3463 722 
L 3463 178 
Q 3153 47 2828 -22 
Q 2503 -91 2169 -91 
Q 1331 -91 842 396 
Q 353 884 353 1716 
Q 353 2575 817 3079 
Q 1281 3584 2069 3584 
Q 2775 3584 3186 3129 
Q 3597 2675 3597 1894 
z
M 3022 2063 
Q 3016 2534 2758 2815 
Q 2500 3097 2075 3097 
Q 1594 3097 1305 2825 
Q 1016 2553 972 2059 
L 3022 2063 
z
" transform="scale(0.015625)"/>
       <path id="DejaVuSans-20" transform="scale(0.015625)"/>
       <path id="DejaVuSans-73" d="M 2834 3397 
L 2834 2853 
Q 2591 2978 2328 3040 
Q 2066 3103 1784 3103 
Q 1356 3103 1142 2972 
Q 928 2841 928 2578 
Q 928 2378 1081 2264 
Q 1234 2150 1697 2047 
L 1894 2003 
Q 2506 1872 2764 1633 
Q 3022 1394 3022 966 
Q 3022 478 2636 193 
Q 2250 -91 1575 -91 
Q 1294 -91 989 -36 
Q 684 19 347 128 
L 347 722 
Q 666 556 975 473 
Q 1284 391 1588 391 
Q 1994 391 2212 530 
Q 2431 669 2431 922 
Q 2431 1156 2273 1281 
Q 2116 1406 1581 1522 
L 1381 1569 
Q 847 1681 609 1914 
Q 372 2147 372 2553 
Q 372 3047 722 3315 
Q 1072 3584 1716 3584 
Q 2034 3584 2315 3537 
Q 2597 3491 2834 3397 
z
" transform="scale(0.015625)"/>
       <path id="DejaVuSans-74" d="M 1172 4494 
L 1172 3500 
L 2356 3500 
L 2356 3053 
L 1172 3053 
L 1172 1153 
Q 1172 725 1289 603 
Q 1406 481 1766 481 
L 2356 481 
L 2356 0 
L 1766 0 
Q 1100 0 847 248 
Q 594 497 594 1153 
L 594 3053 
L 172 3053 
L 172 3500 
L 594 3500 
L 594 4494 
L 1172 4494 
z
" transform="scale(0.015625)"/>
       <path id="DejaVuSans-70" d="M 1159 525 
L 1159 -1331 
L 581 -1331 
L 581 3500 
L 1159 3500 
L 1159 2969 
Q 1341 3281 1617 3432 
Q 1894 3584 2278 3584 
Q 2916 3584 3314 3078 
Q 3713 2572 3713 1747 
Q 3713 922 3314 415 
Q 2916 -91 2278 -91 
Q 1894 -91 1617 61 
Q 1341 213 1159 525 
z
M 3116 1747 
Q 3116 2381 2855 2742 
Q 2594 3103 2138 3103 
Q 1681 3103 1420 2742 
Q 1159 2381 1159 1747 
Q 1159 1113 1420 752 
Q 1681 391 2138 391 
Q 2594 391 2855 752 
Q 3116 1113 3116 1747 
z
" transform="scale(0.015625)"/>
      </defs>
      <use xlink:href="#DejaVuSans-54"/>
      <use xlink:href="#DejaVuSans-69" x="57.958984"/>
      <use xlink:href="#DejaVuSans-6d" x="85.742188"/>
      <use xlink:href="#DejaVuSans-65" x="183.154297"/>
      <use xlink:href="#DejaVuSans-20" x="244.677734"/>
      <use xlink:href="#DejaVuSans-73" x="276.464844"/>
      <use xlink:href="#DejaVuSans-74" x="328.564453"/>
      <use xlink:href="#DejaVuSans-65" x="367.773438"/>
      <use xlink:href="#DejaVuSans-70" x="429.296875"/>
     </g>
    </g>
   </g>
   <g id="matplotlib.axis_2">
    <g id="ytick_1">
     <g id="line2d_15">
      <path d="M 44.66 414.503214 
L 286.74 414.503214 
" clip-path="url(#p40e4c8c6be)" style="fill: none; stroke: #b0b0b0; stroke-width: 0.8; stroke-linecap: square"/>
     </g>
     <g id="line2d_16">
      <defs>
       <path id="ma177b5616b" d="M 0 0 
L -3.5 0 
" style="stroke: #000000; stroke-width: 0.8"/>
      </defs>
      <g>
       <use xlink:href="#ma177b5616b" x="44.66" y="414.503214" style="stroke: #000000; stroke-width: 0.8"/>
      </g>
     </g>
     <g id="text_9">
      <!-- 10 -->
      <g transform="translate(24.935 418.302432) scale(0.1 -0.1)">
       <use xlink:href="#DejaVuSans-31"/>
       <use xlink:href="#DejaVuSans-30" x="63.623047"/>
      </g>
     </g>
    </g>
    <g id="ytick_2">
     <g id="line2d_17">
      <path d="M 44.66 322.198774 
L 286.74 322.198774 
" clip-path="url(#p40e4c8c6be)" style="fill: none; stroke: #b0b0b0; stroke-width: 0.8; stroke-linecap: square"/>
     </g>
     <g id="line2d_18">
      <g>
       <use xlink:href="#ma177b5616b" x="44.66" y="322.198774" style="stroke: #000000; stroke-width: 0.8"/>
      </g>
     </g>
     <g id="text_10">
      <!-- 20 -->
      <g transform="translate(24.935 325.997993) scale(0.1 -0.1)">
       <use xlink:href="#DejaVuSans-32"/>
       <use xlink:href="#DejaVuSans-30" x="63.623047"/>
      </g>
     </g>
    </g>
    <g id="ytick_3">
     <g id="line2d_19">
      <path d="M 44.66 229.894334 
L 286.74 229.894334 
" clip-path="url(#p40e4c8c6be)" style="fill: none; stroke: #b0b0b0; stroke-width: 0.8; stroke-linecap: square"/>
     </g>
     <g id="line2d_20">
      <g>
       <use xlink:href="#ma177b5616b" x="44.66" y="229.894334" style="stroke: #000000; stroke-width: 0.8"/>
      </g>
     </g>
     <g id="text_11">
      <!-- 30 -->
      <g transform="translate(24.935 233.693553) scale(0.1 -0.1)">
       <use xlink:href="#DejaVuSans-33"/>
       <use xlink:href="#DejaVuSans-30" x="63.623047"/>
      </g>
     </g>
    </g>
    <g id="ytick_4">
     <g id="line2d_21">
      <path d="M 44.66 137.589894 
L 286.74 137.589894 
" clip-path="url(#p40e4c8c6be)" style="fill: none; stroke: #b0b0b0; stroke-width: 0.8; stroke-linecap: square"/>
     </g>
     <g id="line2d_22">
      <g>
       <use xlink:href="#ma177b5616b" x="44.66" y="137.589894" style="stroke: #000000; stroke-width: 0.8"/>
      </g>
     </g>
     <g id="text_12">
      <!-- 40 -->
      <g transform="translate(24.935 141.389113) scale(0.1 -0.1)">
       <defs>
        <path id="DejaVuSans-34" d="M 2419 4116 
L 825 1625 
L 2419 1625 
L 2419 4116 
z
M 2253 4666 
L 3047 4666 
L 3047 1625 
L 3713 1625 
L 3713 1100 
L 3047 1100 
L 3047 0 
L 2419 0 
L 2419 1100 
L 313 1100 
L 313 1709 
L 2253 4666 
z
" transform="scale(0.015625)"/>
       </defs>
       <use xlink:href="#DejaVuSans-34"/>
       <use xlink:href="#DejaVuSans-30" x="63.623047"/>
      </g>
     </g>
    </g>
    <g id="ytick_5">
     <g id="line2d_23">
      <path d="M 44.66 45.285455 
L 286.74 45.285455 
" clip-path="url(#p40e4c8c6be)" style="fill: none; stroke: #b0b0b0; stroke-width: 0.8; stroke-linecap: square"/>
     </g>
     <g id="line2d_24">
      <g>
       <use xlink:href="#ma177b5616b" x="44.66" y="45.285455" style="stroke: #000000; stroke-width: 0.8"/>
      </g>
     </g>
     <g id="text_13">
      <!-- 50 -->
      <g transform="translate(24.935 49.084673) scale(0.1 -0.1)">
       <use xlink:href="#DejaVuSans-35"/>
       <use xlink:href="#DejaVuSans-30" x="63.623047"/>
      </g>
     </g>
    </g>
    <g id="text_14">
     <!-- Num bots in zone -->
     <g transform="translate(18.855313 287.572031) rotate(-90) scale(0.1 -0.1)">
      <defs>
       <path id="DejaVuSans-4e" d="M 628 4666 
L 1478 4666 
L 3547 763 
L 3547 4666 
L 4159 4666 
L 4159 0 
L 3309 0 
L 1241 3903 
L 1241 0 
L 628 0 
L 628 4666 
z
" transform="scale(0.015625)"/>
       <path id="DejaVuSans-75" d="M 544 1381 
L 544 3500 
L 1119 3500 
L 1119 1403 
Q 1119 906 1312 657 
Q 1506 409 1894 409 
Q 2359 409 2629 706 
Q 2900 1003 2900 1516 
L 2900 3500 
L 3475 3500 
L 3475 0 
L 2900 0 
L 2900 538 
Q 2691 219 2414 64 
Q 2138 -91 1772 -91 
Q 1169 -91 856 284 
Q 544 659 544 1381 
z
M 1991 3584 
L 1991 3584 
z
" transform="scale(0.015625)"/>
       <path id="DejaVuSans-62" d="M 3116 1747 
Q 3116 2381 2855 2742 
Q 2594 3103 2138 3103 
Q 1681 3103 1420 2742 
Q 1159 2381 1159 1747 
Q 1159 1113 1420 752 
Q 1681 391 2138 391 
Q 2594 391 2855 752 
Q 3116 1113 3116 1747 
z
M 1159 2969 
Q 1341 3281 1617 3432 
Q 1894 3584 2278 3584 
Q 2916 3584 3314 3078 
Q 3713 2572 3713 1747 
Q 3713 922 3314 415 
Q 2916 -91 2278 -91 
Q 1894 -91 1617 61 
Q 1341 213 1159 525 
L 1159 0 
L 581 0 
L 581 4863 
L 1159 4863 
L 1159 2969 
z
" transform="scale(0.015625)"/>
       <path id="DejaVuSans-6f" d="M 1959 3097 
Q 1497 3097 1228 2736 
Q 959 2375 959 1747 
Q 959 1119 1226 758 
Q 1494 397 1959 397 
Q 2419 397 2687 759 
Q 2956 1122 2956 1747 
Q 2956 2369 2687 2733 
Q 2419 3097 1959 3097 
z
M 1959 3584 
Q 2709 3584 3137 3096 
Q 3566 2609 3566 1747 
Q 3566 888 3137 398 
Q 2709 -91 1959 -91 
Q 1206 -91 779 398 
Q 353 888 353 1747 
Q 353 2609 779 3096 
Q 1206 3584 1959 3584 
z
" transform="scale(0.015625)"/>
       <path id="DejaVuSans-6e" d="M 3513 2113 
L 3513 0 
L 2938 0 
L 2938 2094 
Q 2938 2591 2744 2837 
Q 2550 3084 2163 3084 
Q 1697 3084 1428 2787 
Q 1159 2491 1159 1978 
L 1159 0 
L 581 0 
L 581 3500 
L 1159 3500 
L 1159 2956 
Q 1366 3272 1645 3428 
Q 1925 3584 2291 3584 
Q 2894 3584 3203 3211 
Q 3513 2838 3513 2113 
z
" transform="scale(0.015625)"/>
       <path id="DejaVuSans-7a" d="M 353 3500 
L 3084 3500 
L 3084 2975 
L 922 459 
L 3084 459 
L 3084 0 
L 275 0 
L 275 525 
L 2438 3041 
L 353 3041 
L 353 3500 
z
" transform="scale(0.015625)"/>
      </defs>
      <use xlink:href="#DejaVuSans-4e"/>
      <use xlink:href="#DejaVuSans-75" x="74.804688"/>
      <use xlink:href="#DejaVuSans-6d" x="138.183594"/>
      <use xlink:href="#DejaVuSans-20" x="235.595703"/>
      <use xlink:href="#DejaVuSans-62" x="267.382812"/>
      <use xlink:href="#DejaVuSans-6f" x="330.859375"/>
      <use xlink:href="#DejaVuSans-74" x="392.041016"/>
      <use xlink:href="#DejaVuSans-73" x="431.25"/>
      <use xlink:href="#DejaVuSans-20" x="483.349609"/>
      <use xlink:href="#DejaVuSans-69" x="515.136719"/>
      <use xlink:href="#DejaVuSans-6e" x="542.919922"/>
      <use xlink:href="#DejaVuSans-20" x="606.298828"/>
      <use xlink:href="#DejaVuSans-7a" x="638.085938"/>
      <use xlink:href="#DejaVuSans-6f" x="690.576172"/>
      <use xlink:href="#DejaVuSans-6e" x="751.757812"/>
      <use xlink:href="#DejaVuSans-65" x="815.136719"/>
     </g>
    </g>
   </g>
   <g id="line2d_25">
    <path d="M 55.663636 432.964101 
L 56.103929 432.964101 
L 56.250693 442.194545 
L 59.699648 442.194545 
L 59.846412 432.964101 
L 61.093907 432.964101 
L 61.240671 423.733658 
L 62.414784 423.733658 
L 62.561548 414.503214 
L 65.276683 414.503214 
L 65.423447 405.27277 
L 65.937121 405.27277 
L 66.083886 396.042326 
L 73.201943 396.042326 
L 73.348707 386.811882 
L 75.696932 386.811882 
L 75.843696 377.581438 
L 76.063842 377.581438 
L 76.210607 368.350994 
L 81.200585 368.350994 
L 81.347349 359.12055 
L 81.640877 359.12055 
L 81.787641 349.890106 
L 85.970417 349.890106 
L 86.117181 340.659662 
L 86.704238 340.659662 
L 86.851002 331.429218 
L 88.612171 331.429218 
L 88.758935 322.198774 
L 91.400688 322.198774 
L 91.547452 312.96833 
L 94.042441 312.96833 
L 94.189205 303.737886 
L 96.023756 303.737886 
L 96.17052 294.507442 
L 103.72887 294.507442 
L 103.875634 285.276998 
L 104.609455 285.276998 
L 104.756219 276.046554 
L 107.544736 276.046554 
L 107.6915 266.81611 
L 109.379287 266.81611 
L 109.526051 257.585666 
L 109.819579 257.585666 
L 109.966343 248.355222 
L 110.626782 248.355222 
L 110.773546 239.124778 
L 113.195153 239.124778 
L 113.341917 229.894334 
L 115.323232 229.894334 
L 115.469996 220.66389 
L 116.130434 220.66389 
L 116.277198 211.433446 
L 116.644109 211.433446 
L 116.790873 202.203002 
L 118.331895 202.203002 
L 118.47866 192.972558 
L 118.625424 192.972558 
L 118.772188 183.742114 
L 121.047031 183.742114 
L 121.193795 174.51167 
L 121.340559 174.51167 
L 121.487323 165.281226 
L 123.395256 165.281226 
L 123.54202 156.050782 
L 124.495987 156.050782 
L 124.642751 146.820338 
L 126.917594 146.820338 
L 127.064358 137.589894 
L 127.13774 137.589894 
L 127.284504 128.35945 
L 146.363833 128.35945 
L 146.510597 137.589894 
L 148.565294 137.589894 
L 148.712059 128.35945 
L 150.326463 128.35945 
L 150.473227 137.589894 
L 152.38116 137.589894 
L 152.527924 146.820338 
L 153.555273 146.820338 
L 153.702037 156.050782 
L 154.215711 156.050782 
L 154.362475 165.281226 
L 154.802768 165.281226 
L 154.949532 174.51167 
L 157.004229 174.51167 
L 157.150993 165.281226 
L 160.086274 165.281226 
L 160.233038 174.51167 
L 160.820095 174.51167 
L 160.966859 183.742114 
L 163.461848 183.742114 
L 163.608612 174.51167 
L 163.755376 174.51167 
L 163.90214 165.281226 
L 164.489196 165.281226 
L 164.63596 174.51167 
L 167.13095 174.51167 
L 167.277714 165.281226 
L 176.743996 165.281226 
L 176.890761 156.050782 
L 177.551199 156.050782 
L 177.697963 146.820338 
L 178.651929 146.820338 
L 178.798694 137.589894 
L 182.174267 137.589894 
L 182.321031 146.820338 
L 183.641908 146.820338 
L 183.788672 156.050782 
L 185.476459 156.050782 
L 185.623223 146.820338 
L 188.118212 146.820338 
L 188.338358 165.281226 
L 193.401719 165.281226 
L 193.548483 156.050782 
L 195.016124 156.050782 
L 195.162888 165.281226 
L 196.630528 165.281226 
L 196.777292 156.050782 
L 197.951405 156.050782 
L 198.098169 165.281226 
L 203.16153 165.281226 
L 203.308294 156.050782 
L 208.22489 156.050782 
L 208.445036 137.589894 
L 210.793261 137.589894 
L 210.940025 128.35945 
L 211.013407 128.35945 
L 211.233554 109.898562 
L 213.435015 109.898562 
L 213.581779 119.129006 
L 216.51706 119.129006 
L 216.663824 109.898562 
L 216.737206 109.898562 
L 216.88397 100.668118 
L 222.754533 100.668118 
L 222.901297 91.437674 
L 224.295556 91.437674 
L 224.44232 82.20723 
L 226.643781 82.20723 
L 226.790545 72.976786 
L 230.092737 72.976786 
L 230.239501 82.20723 
L 234.055367 82.20723 
L 234.202131 91.437674 
L 237.577705 91.437674 
L 237.724469 82.20723 
L 242.127391 82.20723 
L 242.274155 72.976786 
L 245.649729 72.976786 
L 245.796493 82.20723 
L 245.943257 82.20723 
L 246.090021 91.437674 
L 246.310167 91.437674 
L 246.456931 100.668118 
L 246.750459 100.668118 
L 246.897223 91.437674 
L 247.85119 91.437674 
L 247.997954 82.20723 
L 251.079999 82.20723 
L 251.226763 72.976786 
L 252.254112 72.976786 
L 252.400876 63.746342 
L 265.16935 63.746342 
L 265.316114 72.976786 
L 275.736364 72.976786 
L 275.736364 72.976786 
" clip-path="url(#p40e4c8c6be)" style="fill: none; stroke: #1f77b4; stroke-width: 1.5; stroke-linecap: square"/>
   </g>
   <g id="line2d_26">
    <path d="M 55.663636 423.733658 
L 56.911131 423.733658 
L 57.057895 432.964101 
L 57.204659 423.733658 
L 58.6723 423.733658 
L 58.819064 414.503214 
L 67.478144 414.503214 
L 67.624908 405.27277 
L 71.073864 405.27277 
L 71.220628 396.042326 
L 71.587538 396.042326 
L 71.734302 386.811882 
L 80.393383 386.811882 
L 80.540147 377.581438 
L 81.861023 377.581438 
L 82.007787 368.350994 
L 83.402046 368.350994 
L 83.54881 359.12055 
L 85.530125 359.12055 
L 85.676889 349.890106 
L 85.897035 349.890106 
L 86.043799 340.659662 
L 89.639519 340.659662 
L 89.786283 331.429218 
L 91.47407 331.429218 
L 91.620834 322.198774 
L 93.235239 322.198774 
L 93.382003 312.96833 
L 95.730228 312.96833 
L 95.876992 303.737886 
L 102.701522 303.737886 
L 102.848286 294.507442 
L 103.215196 294.507442 
L 103.36196 303.737886 
L 104.902983 303.737886 
L 105.049747 294.507442 
L 106.444006 294.507442 
L 106.59077 285.276998 
L 108.205174 285.276998 
L 108.351939 276.046554 
L 108.498703 276.046554 
L 108.645467 266.81611 
L 109.232523 266.81611 
L 109.379287 257.585666 
L 109.966343 257.585666 
L 110.113107 248.355222 
L 112.241186 248.355222 
L 112.387951 239.124778 
L 114.662794 239.124778 
L 114.809558 229.894334 
L 115.836906 229.894334 
L 115.98367 220.66389 
L 117.598075 220.66389 
L 117.744839 211.433446 
L 120.900267 211.433446 
L 121.047031 202.203002 
L 130.219785 202.203002 
L 130.366549 192.972558 
L 130.439931 192.972558 
L 130.586696 183.742114 
L 135.943584 183.742114 
L 136.090348 174.51167 
L 138.732102 174.51167 
L 138.878866 165.281226 
L 149.152351 165.281226 
L 149.299115 156.050782 
L 152.087632 156.050782 
L 152.234396 146.820338 
L 155.536588 146.820338 
L 155.683352 137.589894 
L 155.756734 137.589894 
L 155.903498 128.35945 
L 156.417172 128.35945 
L 156.563936 119.129006 
L 157.150993 119.129006 
L 157.297757 109.898562 
L 158.178341 109.898562 
L 158.325105 100.668118 
L 161.407151 100.668118 
L 161.553915 91.437674 
L 163.828758 91.437674 
L 163.975522 82.20723 
L 165.516545 82.20723 
L 165.663309 72.976786 
L 167.644624 72.976786 
L 167.791388 63.746342 
L 168.525208 63.746342 
L 168.671972 54.515899 
L 179.238986 54.515899 
L 179.38575 45.285455 
L 255.923214 45.285455 
L 256.069978 54.515899 
L 258.858495 54.515899 
L 259.005259 63.746342 
L 264.875822 63.746342 
L 265.022586 54.515899 
L 274.195341 54.515899 
L 274.342105 45.285455 
L 275.736364 45.285455 
L 275.736364 45.285455 
" clip-path="url(#p40e4c8c6be)" style="fill: none; stroke: #ff7f0e; stroke-width: 1.5; stroke-linecap: square"/>
   </g>
   <g id="line2d_27">
    <path d="M 55.663636 442.194545 
L 59.40612 442.194545 
L 59.552884 432.964101 
L 63.442132 432.964101 
L 63.588896 423.733658 
L 66.23065 423.733658 
L 66.377414 414.503214 
L 68.652257 414.503214 
L 68.799021 405.27277 
L 72.468123 405.27277 
L 72.614887 396.042326 
L 77.384719 396.042326 
L 77.531483 386.811882 
L 79.21927 386.811882 
L 79.366034 377.581438 
L 81.787641 377.581438 
L 81.934405 368.350994 
L 90.446722 368.350994 
L 90.593486 359.12055 
L 92.501419 359.12055 
L 92.648183 349.890106 
L 92.794947 349.890106 
L 92.941711 340.659662 
L 94.482734 340.659662 
L 94.629498 331.429218 
L 103.802252 331.429218 
L 103.949016 322.198774 
L 114.589412 322.198774 
L 114.736176 312.96833 
L 115.469996 312.96833 
L 115.61676 303.737886 
L 117.011019 303.737886 
L 117.157783 294.507442 
L 120.680121 294.507442 
L 120.826885 285.276998 
L 123.395256 285.276998 
L 123.54202 276.046554 
L 124.789515 276.046554 
L 124.936279 266.81611 
L 125.376571 266.81611 
L 125.523335 257.585666 
L 131.173752 257.585666 
L 131.320516 248.355222 
L 131.760808 248.355222 
L 131.907572 239.124778 
L 134.182415 239.124778 
L 134.329179 229.894334 
L 136.383876 229.894334 
L 136.530641 220.66389 
L 138.071663 220.66389 
L 138.218427 211.433446 
L 138.585338 211.433446 
L 138.732102 202.203002 
L 140.566653 202.203002 
L 140.713417 192.972558 
L 149.666025 192.972558 
L 149.812789 183.742114 
L 154.215711 183.742114 
L 154.362475 174.51167 
L 154.509239 174.51167 
L 154.656004 165.281226 
L 155.022914 165.281226 
L 155.169678 156.050782 
L 159.058926 156.050782 
L 159.20569 146.820338 
L 161.113623 146.820338 
L 161.260387 137.589894 
L 161.920825 137.589894 
L 162.140971 119.129006 
L 172.634602 119.129006 
L 172.781367 109.898562 
L 173.148277 109.898562 
L 173.295041 100.668118 
L 175.05621 100.668118 
L 175.202974 91.437674 
L 178.798694 91.437674 
L 178.945458 82.20723 
L 179.532514 82.20723 
L 179.679278 72.976786 
L 197.217585 72.976786 
L 197.364349 63.746342 
L 200.373012 63.746342 
L 200.519776 54.515899 
L 215.563094 54.515899 
L 215.709858 45.285455 
L 217.984701 45.285455 
L 218.131465 54.515899 
L 224.515702 54.515899 
L 224.662466 45.285455 
L 275.736364 45.285455 
L 275.736364 45.285455 
" clip-path="url(#p40e4c8c6be)" style="fill: none; stroke: #2ca02c; stroke-width: 1.5; stroke-linecap: square"/>
   </g>
   <g id="line2d_28">
    <path d="M 55.663636 442.194545 
L 55.957165 442.194545 
L 56.103929 432.964101 
L 60.066559 432.964101 
L 60.213323 423.733658 
L 60.286705 423.733658 
L 60.433469 414.503214 
L 62.855076 414.503214 
L 63.00184 405.27277 
L 63.588896 405.27277 
L 63.73566 396.042326 
L 71.220628 396.042326 
L 71.440774 377.581438 
L 72.101213 377.581438 
L 72.247977 368.350994 
L 80.466765 368.350994 
L 80.613529 359.12055 
L 81.053821 359.12055 
L 81.200585 349.890106 
L 84.062484 349.890106 
L 84.209249 340.659662 
L 84.356013 340.659662 
L 84.502777 331.429218 
L 85.016451 331.429218 
L 85.163215 322.198774 
L 88.905699 322.198774 
L 89.052463 312.96833 
L 92.721565 312.96833 
L 92.868329 303.737886 
L 101.013735 303.737886 
L 101.160499 294.507442 
L 105.490039 294.507442 
L 105.636803 285.276998 
L 108.131792 285.276998 
L 108.278556 276.046554 
L 108.792231 276.046554 
L 108.938995 285.276998 
L 113.268535 285.276998 
L 113.415299 276.046554 
L 114.736176 276.046554 
L 114.88294 266.81611 
L 115.836906 266.81611 
L 115.98367 257.585666 
L 116.790873 257.585666 
L 116.937637 248.355222 
L 119.506008 248.355222 
L 119.652772 239.124778 
L 120.386593 239.124778 
L 120.606739 220.66389 
L 123.982312 220.66389 
L 124.129076 211.433446 
L 127.284504 211.433446 
L 127.431268 202.203002 
L 128.972291 202.203002 
L 129.119055 211.433446 
L 135.79682 211.433446 
L 135.943584 202.203002 
L 139.612686 202.203002 
L 139.75945 192.972558 
L 140.346506 192.972558 
L 140.49327 183.742114 
L 140.566653 183.742114 
L 140.640035 174.51167 
L 140.786799 183.742114 
L 143.428552 183.742114 
L 143.575316 192.972558 
L 148.712059 192.972558 
L 148.858823 183.742114 
L 149.519261 183.742114 
L 149.666025 174.51167 
L 151.940868 174.51167 
L 152.087632 165.281226 
L 152.968217 165.281226 
L 153.114981 156.050782 
L 153.555273 156.050782 
L 153.702037 146.820338 
L 155.316442 146.820338 
L 155.463206 137.589894 
L 157.077611 137.589894 
L 157.224375 128.35945 
L 157.738049 128.35945 
L 157.884813 119.129006 
L 158.985544 119.129006 
L 159.132308 109.898562 
L 160.086274 109.898562 
L 160.233038 100.668118 
L 164.929489 100.668118 
L 165.076253 91.437674 
L 168.892119 91.437674 
L 169.038883 82.20723 
L 169.919467 82.20723 
L 170.139613 63.746342 
L 174.542535 63.746342 
L 174.689299 54.515899 
L 180.192952 54.515899 
L 180.339716 45.285455 
L 275.736364 45.285455 
L 275.736364 45.285455 
" clip-path="url(#p40e4c8c6be)" style="fill: none; stroke: #d62728; stroke-width: 1.5; stroke-linecap: square"/>
   </g>
   <g id="line2d_29">
    <path d="M 55.663636 423.733658 
L 57.865097 423.733658 
L 58.011862 432.964101 
L 67.037852 432.964101 
L 67.184616 423.733658 
L 68.725639 423.733658 
L 68.872403 414.503214 
L 69.459459 414.503214 
L 69.606223 405.27277 
L 72.688269 405.27277 
L 72.835033 396.042326 
L 74.15591 396.042326 
L 74.302674 386.811882 
L 74.449438 386.811882 
L 74.596202 377.581438 
L 74.669584 377.581438 
L 74.816348 368.350994 
L 75.036494 368.350994 
L 75.183258 359.12055 
L 75.843696 359.12055 
L 75.99046 349.890106 
L 77.825011 349.890106 
L 77.971775 331.429218 
L 78.999124 331.429218 
L 79.145888 322.198774 
L 79.21927 322.198774 
L 79.366034 312.96833 
L 80.540147 312.96833 
L 80.686911 303.737886 
L 81.053821 303.737886 
L 81.200585 294.507442 
L 82.81499 294.507442 
L 82.961754 285.276998 
L 88.098496 285.276998 
L 88.245261 276.046554 
L 90.446722 276.046554 
L 90.666868 257.585666 
L 95.80361 257.585666 
L 95.950374 248.355222 
L 102.187847 248.355222 
L 102.334612 239.124778 
L 105.416657 239.124778 
L 105.490039 248.355222 
L 105.636803 239.124778 
L 106.737534 239.124778 
L 106.884298 229.894334 
L 110.5534 229.894334 
L 110.700164 220.66389 
L 113.268535 220.66389 
L 113.415299 211.433446 
L 115.396614 211.433446 
L 115.543378 202.203002 
L 117.304547 202.203002 
L 117.524693 183.742114 
L 118.552042 183.742114 
L 118.772188 165.281226 
L 120.31321 165.281226 
L 120.459975 156.050782 
L 121.340559 156.050782 
L 121.487323 146.820338 
L 124.422605 146.820338 
L 124.569369 137.589894 
L 126.110391 137.589894 
L 126.257155 128.35945 
L 126.403919 128.35945 
L 126.550684 119.129006 
L 128.165088 119.129006 
L 128.311852 109.898562 
L 128.752145 109.898562 
L 128.898909 100.668118 
L 129.779493 100.668118 
L 129.926257 91.437674 
L 133.008303 91.437674 
L 133.155067 100.668118 
L 140.199742 100.668118 
L 140.346506 91.437674 
L 141.300473 91.437674 
L 141.447237 82.20723 
L 145.336485 82.20723 
L 145.483249 91.437674 
L 148.41853 91.437674 
L 148.565294 100.668118 
L 149.225733 100.668118 
L 149.372497 91.437674 
L 157.664667 91.437674 
L 157.811431 82.20723 
L 160.673331 82.20723 
L 160.820095 91.437674 
L 163.16832 91.437674 
L 163.315084 100.668118 
L 165.736691 100.668118 
L 165.883455 109.898562 
L 168.671972 109.898562 
L 168.818737 119.129006 
L 171.900782 119.129006 
L 172.047546 109.898562 
L 177.037525 109.898562 
L 177.184289 100.668118 
L 177.404435 100.668118 
L 177.551199 91.437674 
L 181.660593 91.437674 
L 181.807357 82.20723 
L 183.054852 82.20723 
L 183.201616 72.976786 
L 184.742638 72.976786 
L 184.889403 63.746342 
L 187.237628 63.746342 
L 187.384392 54.515899 
L 193.254955 54.515899 
L 193.401719 45.285455 
L 203.601822 45.285455 
L 203.748586 54.515899 
L 221.286893 54.515899 
L 221.433657 45.285455 
L 275.736364 45.285455 
L 275.736364 45.285455 
" clip-path="url(#p40e4c8c6be)" style="fill: none; stroke: #9467bd; stroke-width: 1.5; stroke-linecap: square"/>
   </g>
   <g id="patch_3">
    <path d="M 44.66 462.04 
L 44.66 25.44 
" style="fill: none; stroke: #000000; stroke-width: 0.8; stroke-linejoin: miter; stroke-linecap: square"/>
   </g>
   <g id="patch_4">
    <path d="M 286.74 462.04 
L 286.74 25.44 
" style="fill: none; stroke: #000000; stroke-width: 0.8; stroke-linejoin: miter; stroke-linecap: square"/>
   </g>
   <g id="patch_5">
    <path d="M 44.66 462.04 
L 286.74 462.04 
" style="fill: none; stroke: #000000; stroke-width: 0.8; stroke-linejoin: miter; stroke-linecap: square"/>
   </g>
   <g id="patch_6">
    <path d="M 44.66 25.44 
L 286.74 25.44 
" style="fill: none; stroke: #000000; stroke-width: 0.8; stroke-linejoin: miter; stroke-linecap: square"/>
   </g>
   <g id="text_15">
    <!-- Experiment length: 300s -->
    <g transform="translate(298.844 187.718875) scale(0.08 -0.08)">
     <defs>
      <path id="DejaVuSans-45" d="M 628 4666 
L 3578 4666 
L 3578 4134 
L 1259 4134 
L 1259 2753 
L 3481 2753 
L 3481 2222 
L 1259 2222 
L 1259 531 
L 3634 531 
L 3634 0 
L 628 0 
L 628 4666 
z
" transform="scale(0.015625)"/>
      <path id="DejaVuSans-78" d="M 3513 3500 
L 2247 1797 
L 3578 0 
L 2900 0 
L 1881 1375 
L 863 0 
L 184 0 
L 1544 1831 
L 300 3500 
L 978 3500 
L 1906 2253 
L 2834 3500 
L 3513 3500 
z
" transform="scale(0.015625)"/>
      <path id="DejaVuSans-72" d="M 2631 2963 
Q 2534 3019 2420 3045 
Q 2306 3072 2169 3072 
Q 1681 3072 1420 2755 
Q 1159 2438 1159 1844 
L 1159 0 
L 581 0 
L 581 3500 
L 1159 3500 
L 1159 2956 
Q 1341 3275 1631 3429 
Q 1922 3584 2338 3584 
Q 2397 3584 2469 3576 
Q 2541 3569 2628 3553 
L 2631 2963 
z
" transform="scale(0.015625)"/>
      <path id="DejaVuSans-6c" d="M 603 4863 
L 1178 4863 
L 1178 0 
L 603 0 
L 603 4863 
z
" transform="scale(0.015625)"/>
      <path id="DejaVuSans-67" d="M 2906 1791 
Q 2906 2416 2648 2759 
Q 2391 3103 1925 3103 
Q 1463 3103 1205 2759 
Q 947 2416 947 1791 
Q 947 1169 1205 825 
Q 1463 481 1925 481 
Q 2391 481 2648 825 
Q 2906 1169 2906 1791 
z
M 3481 434 
Q 3481 -459 3084 -895 
Q 2688 -1331 1869 -1331 
Q 1566 -1331 1297 -1286 
Q 1028 -1241 775 -1147 
L 775 -588 
Q 1028 -725 1275 -790 
Q 1522 -856 1778 -856 
Q 2344 -856 2625 -561 
Q 2906 -266 2906 331 
L 2906 616 
Q 2728 306 2450 153 
Q 2172 0 1784 0 
Q 1141 0 747 490 
Q 353 981 353 1791 
Q 353 2603 747 3093 
Q 1141 3584 1784 3584 
Q 2172 3584 2450 3431 
Q 2728 3278 2906 2969 
L 2906 3500 
L 3481 3500 
L 3481 434 
z
" transform="scale(0.015625)"/>
      <path id="DejaVuSans-68" d="M 3513 2113 
L 3513 0 
L 2938 0 
L 2938 2094 
Q 2938 2591 2744 2837 
Q 2550 3084 2163 3084 
Q 1697 3084 1428 2787 
Q 1159 2491 1159 1978 
L 1159 0 
L 581 0 
L 581 4863 
L 1159 4863 
L 1159 2956 
Q 1366 3272 1645 3428 
Q 1925 3584 2291 3584 
Q 2894 3584 3203 3211 
Q 3513 2838 3513 2113 
z
" transform="scale(0.015625)"/>
      <path id="DejaVuSans-3a" d="M 750 794 
L 1409 794 
L 1409 0 
L 750 0 
L 750 794 
z
M 750 3309 
L 1409 3309 
L 1409 2516 
L 750 2516 
L 750 3309 
z
" transform="scale(0.015625)"/>
     </defs>
     <use xlink:href="#DejaVuSans-45"/>
     <use xlink:href="#DejaVuSans-78" x="63.183594"/>
     <use xlink:href="#DejaVuSans-70" x="122.363281"/>
     <use xlink:href="#DejaVuSans-65" x="185.839844"/>
     <use xlink:href="#DejaVuSans-72" x="247.363281"/>
     <use xlink:href="#DejaVuSans-69" x="288.476562"/>
     <use xlink:href="#DejaVuSans-6d" x="316.259766"/>
     <use xlink:href="#DejaVuSans-65" x="413.671875"/>
     <use xlink:href="#DejaVuSans-6e" x="475.195312"/>
     <use xlink:href="#DejaVuSans-74" x="538.574219"/>
     <use xlink:href="#DejaVuSans-20" x="577.783203"/>
     <use xlink:href="#DejaVuSans-6c" x="609.570312"/>
     <use xlink:href="#DejaVuSans-65" x="637.353516"/>
     <use xlink:href="#DejaVuSans-6e" x="698.876953"/>
     <use xlink:href="#DejaVuSans-67" x="762.255859"/>
     <use xlink:href="#DejaVuSans-74" x="825.732422"/>
     <use xlink:href="#DejaVuSans-68" x="864.941406"/>
     <use xlink:href="#DejaVuSans-3a" x="928.320312"/>
     <use xlink:href="#DejaVuSans-20" x="962.011719"/>
     <use xlink:href="#DejaVuSans-33" x="993.798828"/>
     <use xlink:href="#DejaVuSans-30" x="1057.421875"/>
     <use xlink:href="#DejaVuSans-30" x="1121.044922"/>
     <use xlink:href="#DejaVuSans-73" x="1184.667969"/>
    </g>
    <!-- Target area size: 2 -->
    <g transform="translate(298.844 196.677125) scale(0.08 -0.08)">
     <defs>
      <path id="DejaVuSans-61" d="M 2194 1759 
Q 1497 1759 1228 1600 
Q 959 1441 959 1056 
Q 959 750 1161 570 
Q 1363 391 1709 391 
Q 2188 391 2477 730 
Q 2766 1069 2766 1631 
L 2766 1759 
L 2194 1759 
z
M 3341 1997 
L 3341 0 
L 2766 0 
L 2766 531 
Q 2569 213 2275 61 
Q 1981 -91 1556 -91 
Q 1019 -91 701 211 
Q 384 513 384 1019 
Q 384 1609 779 1909 
Q 1175 2209 1959 2209 
L 2766 2209 
L 2766 2266 
Q 2766 2663 2505 2880 
Q 2244 3097 1772 3097 
Q 1472 3097 1187 3025 
Q 903 2953 641 2809 
L 641 3341 
Q 956 3463 1253 3523 
Q 1550 3584 1831 3584 
Q 2591 3584 2966 3190 
Q 3341 2797 3341 1997 
z
" transform="scale(0.015625)"/>
     </defs>
     <use xlink:href="#DejaVuSans-54"/>
     <use xlink:href="#DejaVuSans-61" x="44.583984"/>
     <use xlink:href="#DejaVuSans-72" x="105.863281"/>
     <use xlink:href="#DejaVuSans-67" x="145.226562"/>
     <use xlink:href="#DejaVuSans-65" x="208.703125"/>
     <use xlink:href="#DejaVuSans-74" x="270.226562"/>
     <use xlink:href="#DejaVuSans-20" x="309.435547"/>
     <use xlink:href="#DejaVuSans-61" x="341.222656"/>
     <use xlink:href="#DejaVuSans-72" x="402.501953"/>
     <use xlink:href="#DejaVuSans-65" x="441.365234"/>
     <use xlink:href="#DejaVuSans-61" x="502.888672"/>
     <use xlink:href="#DejaVuSans-20" x="564.167969"/>
     <use xlink:href="#DejaVuSans-73" x="595.955078"/>
     <use xlink:href="#DejaVuSans-69" x="648.054688"/>
     <use xlink:href="#DejaVuSans-7a" x="675.837891"/>
     <use xlink:href="#DejaVuSans-65" x="728.328125"/>
     <use xlink:href="#DejaVuSans-3a" x="789.851562"/>
     <use xlink:href="#DejaVuSans-20" x="823.542969"/>
     <use xlink:href="#DejaVuSans-32" x="855.330078"/>
    </g>
    <!-- Stationary target bot: true -->
    <g transform="translate(298.844 205.635375) scale(0.08 -0.08)">
     <defs>
      <path id="DejaVuSans-53" d="M 3425 4513 
L 3425 3897 
Q 3066 4069 2747 4153 
Q 2428 4238 2131 4238 
Q 1616 4238 1336 4038 
Q 1056 3838 1056 3469 
Q 1056 3159 1242 3001 
Q 1428 2844 1947 2747 
L 2328 2669 
Q 3034 2534 3370 2195 
Q 3706 1856 3706 1288 
Q 3706 609 3251 259 
Q 2797 -91 1919 -91 
Q 1588 -91 1214 -16 
Q 841 59 441 206 
L 441 856 
Q 825 641 1194 531 
Q 1563 422 1919 422 
Q 2459 422 2753 634 
Q 3047 847 3047 1241 
Q 3047 1584 2836 1778 
Q 2625 1972 2144 2069 
L 1759 2144 
Q 1053 2284 737 2584 
Q 422 2884 422 3419 
Q 422 4038 858 4394 
Q 1294 4750 2059 4750 
Q 2388 4750 2728 4690 
Q 3069 4631 3425 4513 
z
" transform="scale(0.015625)"/>
      <path id="DejaVuSans-79" d="M 2059 -325 
Q 1816 -950 1584 -1140 
Q 1353 -1331 966 -1331 
L 506 -1331 
L 506 -850 
L 844 -850 
Q 1081 -850 1212 -737 
Q 1344 -625 1503 -206 
L 1606 56 
L 191 3500 
L 800 3500 
L 1894 763 
L 2988 3500 
L 3597 3500 
L 2059 -325 
z
" transform="scale(0.015625)"/>
     </defs>
     <use xlink:href="#DejaVuSans-53"/>
     <use xlink:href="#DejaVuSans-74" x="63.476562"/>
     <use xlink:href="#DejaVuSans-61" x="102.685547"/>
     <use xlink:href="#DejaVuSans-74" x="163.964844"/>
     <use xlink:href="#DejaVuSans-69" x="203.173828"/>
     <use xlink:href="#DejaVuSans-6f" x="230.957031"/>
     <use xlink:href="#DejaVuSans-6e" x="292.138672"/>
     <use xlink:href="#DejaVuSans-61" x="355.517578"/>
     <use xlink:href="#DejaVuSans-72" x="416.796875"/>
     <use xlink:href="#DejaVuSans-79" x="457.910156"/>
     <use xlink:href="#DejaVuSans-20" x="517.089844"/>
     <use xlink:href="#DejaVuSans-74" x="548.876953"/>
     <use xlink:href="#DejaVuSans-61" x="588.085938"/>
     <use xlink:href="#DejaVuSans-72" x="649.365234"/>
     <use xlink:href="#DejaVuSans-67" x="688.728516"/>
     <use xlink:href="#DejaVuSans-65" x="752.205078"/>
     <use xlink:href="#DejaVuSans-74" x="813.728516"/>
     <use xlink:href="#DejaVuSans-20" x="852.9375"/>
     <use xlink:href="#DejaVuSans-62" x="884.724609"/>
     <use xlink:href="#DejaVuSans-6f" x="948.201172"/>
     <use xlink:href="#DejaVuSans-74" x="1009.382812"/>
     <use xlink:href="#DejaVuSans-3a" x="1048.591797"/>
     <use xlink:href="#DejaVuSans-20" x="1082.283203"/>
     <use xlink:href="#DejaVuSans-74" x="1114.070312"/>
     <use xlink:href="#DejaVuSans-72" x="1153.279297"/>
     <use xlink:href="#DejaVuSans-75" x="1194.392578"/>
     <use xlink:href="#DejaVuSans-65" x="1257.771484"/>
    </g>
    <!-- Packet drop prob: 0 -->
    <g transform="translate(298.844 214.593625) scale(0.08 -0.08)">
     <defs>
      <path id="DejaVuSans-50" d="M 1259 4147 
L 1259 2394 
L 2053 2394 
Q 2494 2394 2734 2622 
Q 2975 2850 2975 3272 
Q 2975 3691 2734 3919 
Q 2494 4147 2053 4147 
L 1259 4147 
z
M 628 4666 
L 2053 4666 
Q 2838 4666 3239 4311 
Q 3641 3956 3641 3272 
Q 3641 2581 3239 2228 
Q 2838 1875 2053 1875 
L 1259 1875 
L 1259 0 
L 628 0 
L 628 4666 
z
" transform="scale(0.015625)"/>
      <path id="DejaVuSans-63" d="M 3122 3366 
L 3122 2828 
Q 2878 2963 2633 3030 
Q 2388 3097 2138 3097 
Q 1578 3097 1268 2742 
Q 959 2388 959 1747 
Q 959 1106 1268 751 
Q 1578 397 2138 397 
Q 2388 397 2633 464 
Q 2878 531 3122 666 
L 3122 134 
Q 2881 22 2623 -34 
Q 2366 -91 2075 -91 
Q 1284 -91 818 406 
Q 353 903 353 1747 
Q 353 2603 823 3093 
Q 1294 3584 2113 3584 
Q 2378 3584 2631 3529 
Q 2884 3475 3122 3366 
z
" transform="scale(0.015625)"/>
      <path id="DejaVuSans-6b" d="M 581 4863 
L 1159 4863 
L 1159 1991 
L 2875 3500 
L 3609 3500 
L 1753 1863 
L 3688 0 
L 2938 0 
L 1159 1709 
L 1159 0 
L 581 0 
L 581 4863 
z
" transform="scale(0.015625)"/>
      <path id="DejaVuSans-64" d="M 2906 2969 
L 2906 4863 
L 3481 4863 
L 3481 0 
L 2906 0 
L 2906 525 
Q 2725 213 2448 61 
Q 2172 -91 1784 -91 
Q 1150 -91 751 415 
Q 353 922 353 1747 
Q 353 2572 751 3078 
Q 1150 3584 1784 3584 
Q 2172 3584 2448 3432 
Q 2725 3281 2906 2969 
z
M 947 1747 
Q 947 1113 1208 752 
Q 1469 391 1925 391 
Q 2381 391 2643 752 
Q 2906 1113 2906 1747 
Q 2906 2381 2643 2742 
Q 2381 3103 1925 3103 
Q 1469 3103 1208 2742 
Q 947 2381 947 1747 
z
" transform="scale(0.015625)"/>
     </defs>
     <use xlink:href="#DejaVuSans-50"/>
     <use xlink:href="#DejaVuSans-61" x="55.802734"/>
     <use xlink:href="#DejaVuSans-63" x="117.082031"/>
     <use xlink:href="#DejaVuSans-6b" x="172.0625"/>
     <use xlink:href="#DejaVuSans-65" x="226.347656"/>
     <use xlink:href="#DejaVuSans-74" x="287.871094"/>
     <use xlink:href="#DejaVuSans-20" x="327.080078"/>
     <use xlink:href="#DejaVuSans-64" x="358.867188"/>
     <use xlink:href="#DejaVuSans-72" x="422.34375"/>
     <use xlink:href="#DejaVuSans-6f" x="461.207031"/>
     <use xlink:href="#DejaVuSans-70" x="522.388672"/>
     <use xlink:href="#DejaVuSans-20" x="585.865234"/>
     <use xlink:href="#DejaVuSans-70" x="617.652344"/>
     <use xlink:href="#DejaVuSans-72" x="681.128906"/>
     <use xlink:href="#DejaVuSans-6f" x="719.992188"/>
     <use xlink:href="#DejaVuSans-62" x="781.173828"/>
     <use xlink:href="#DejaVuSans-3a" x="844.650391"/>
     <use xlink:href="#DejaVuSans-20" x="878.341797"/>
     <use xlink:href="#DejaVuSans-30" x="910.128906"/>
    </g>
    <!-- Delayed transmission prob: 0 -->
    <g transform="translate(298.844 223.551875) scale(0.08 -0.08)">
     <defs>
      <path id="DejaVuSans-44" d="M 1259 4147 
L 1259 519 
L 2022 519 
Q 2988 519 3436 956 
Q 3884 1394 3884 2338 
Q 3884 3275 3436 3711 
Q 2988 4147 2022 4147 
L 1259 4147 
z
M 628 4666 
L 1925 4666 
Q 3281 4666 3915 4102 
Q 4550 3538 4550 2338 
Q 4550 1131 3912 565 
Q 3275 0 1925 0 
L 628 0 
L 628 4666 
z
" transform="scale(0.015625)"/>
     </defs>
     <use xlink:href="#DejaVuSans-44"/>
     <use xlink:href="#DejaVuSans-65" x="77.001953"/>
     <use xlink:href="#DejaVuSans-6c" x="138.525391"/>
     <use xlink:href="#DejaVuSans-61" x="166.308594"/>
     <use xlink:href="#DejaVuSans-79" x="227.587891"/>
     <use xlink:href="#DejaVuSans-65" x="286.767578"/>
     <use xlink:href="#DejaVuSans-64" x="348.291016"/>
     <use xlink:href="#DejaVuSans-20" x="411.767578"/>
     <use xlink:href="#DejaVuSans-74" x="443.554688"/>
     <use xlink:href="#DejaVuSans-72" x="482.763672"/>
     <use xlink:href="#DejaVuSans-61" x="523.876953"/>
     <use xlink:href="#DejaVuSans-6e" x="585.15625"/>
     <use xlink:href="#DejaVuSans-73" x="648.535156"/>
     <use xlink:href="#DejaVuSans-6d" x="700.634766"/>
     <use xlink:href="#DejaVuSans-69" x="798.046875"/>
     <use xlink:href="#DejaVuSans-73" x="825.830078"/>
     <use xlink:href="#DejaVuSans-73" x="877.929688"/>
     <use xlink:href="#DejaVuSans-69" x="930.029297"/>
     <use xlink:href="#DejaVuSans-6f" x="957.8125"/>
     <use xlink:href="#DejaVuSans-6e" x="1018.994141"/>
     <use xlink:href="#DejaVuSans-20" x="1082.373047"/>
     <use xlink:href="#DejaVuSans-70" x="1114.160156"/>
     <use xlink:href="#DejaVuSans-72" x="1177.636719"/>
     <use xlink:href="#DejaVuSans-6f" x="1216.5"/>
     <use xlink:href="#DejaVuSans-62" x="1277.681641"/>
     <use xlink:href="#DejaVuSans-3a" x="1341.158203"/>
     <use xlink:href="#DejaVuSans-20" x="1374.849609"/>
     <use xlink:href="#DejaVuSans-30" x="1406.636719"/>
    </g>
    <!-- Number of timesteps for delayed transmission: 0 -->
    <g transform="translate(298.844 232.510125) scale(0.08 -0.08)">
     <defs>
      <path id="DejaVuSans-66" d="M 2375 4863 
L 2375 4384 
L 1825 4384 
Q 1516 4384 1395 4259 
Q 1275 4134 1275 3809 
L 1275 3500 
L 2222 3500 
L 2222 3053 
L 1275 3053 
L 1275 0 
L 697 0 
L 697 3053 
L 147 3053 
L 147 3500 
L 697 3500 
L 697 3744 
Q 697 4328 969 4595 
Q 1241 4863 1831 4863 
L 2375 4863 
z
" transform="scale(0.015625)"/>
     </defs>
     <use xlink:href="#DejaVuSans-4e"/>
     <use xlink:href="#DejaVuSans-75" x="74.804688"/>
     <use xlink:href="#DejaVuSans-6d" x="138.183594"/>
     <use xlink:href="#DejaVuSans-62" x="235.595703"/>
     <use xlink:href="#DejaVuSans-65" x="299.072266"/>
     <use xlink:href="#DejaVuSans-72" x="360.595703"/>
     <use xlink:href="#DejaVuSans-20" x="401.708984"/>
     <use xlink:href="#DejaVuSans-6f" x="433.496094"/>
     <use xlink:href="#DejaVuSans-66" x="494.677734"/>
     <use xlink:href="#DejaVuSans-20" x="529.882812"/>
     <use xlink:href="#DejaVuSans-74" x="561.669922"/>
     <use xlink:href="#DejaVuSans-69" x="600.878906"/>
     <use xlink:href="#DejaVuSans-6d" x="628.662109"/>
     <use xlink:href="#DejaVuSans-65" x="726.074219"/>
     <use xlink:href="#DejaVuSans-73" x="787.597656"/>
     <use xlink:href="#DejaVuSans-74" x="839.697266"/>
     <use xlink:href="#DejaVuSans-65" x="878.90625"/>
     <use xlink:href="#DejaVuSans-70" x="940.429688"/>
     <use xlink:href="#DejaVuSans-73" x="1003.90625"/>
     <use xlink:href="#DejaVuSans-20" x="1056.005859"/>
     <use xlink:href="#DejaVuSans-66" x="1087.792969"/>
     <use xlink:href="#DejaVuSans-6f" x="1122.998047"/>
     <use xlink:href="#DejaVuSans-72" x="1184.179688"/>
     <use xlink:href="#DejaVuSans-20" x="1225.292969"/>
     <use xlink:href="#DejaVuSans-64" x="1257.080078"/>
     <use xlink:href="#DejaVuSans-65" x="1320.556641"/>
     <use xlink:href="#DejaVuSans-6c" x="1382.080078"/>
     <use xlink:href="#DejaVuSans-61" x="1409.863281"/>
     <use xlink:href="#DejaVuSans-79" x="1471.142578"/>
     <use xlink:href="#DejaVuSans-65" x="1530.322266"/>
     <use xlink:href="#DejaVuSans-64" x="1591.845703"/>
     <use xlink:href="#DejaVuSans-20" x="1655.322266"/>
     <use xlink:href="#DejaVuSans-74" x="1687.109375"/>
     <use xlink:href="#DejaVuSans-72" x="1726.318359"/>
     <use xlink:href="#DejaVuSans-61" x="1767.431641"/>
     <use xlink:href="#DejaVuSans-6e" x="1828.710938"/>
     <use xlink:href="#DejaVuSans-73" x="1892.089844"/>
     <use xlink:href="#DejaVuSans-6d" x="1944.189453"/>
     <use xlink:href="#DejaVuSans-69" x="2041.601562"/>
     <use xlink:href="#DejaVuSans-73" x="2069.384766"/>
     <use xlink:href="#DejaVuSans-73" x="2121.484375"/>
     <use xlink:href="#DejaVuSans-69" x="2173.583984"/>
     <use xlink:href="#DejaVuSans-6f" x="2201.367188"/>
     <use xlink:href="#DejaVuSans-6e" x="2262.548828"/>
     <use xlink:href="#DejaVuSans-3a" x="2325.927734"/>
     <use xlink:href="#DejaVuSans-20" x="2359.619141"/>
     <use xlink:href="#DejaVuSans-30" x="2391.40625"/>
    </g>
    <!-- Number of starting bots: 50 -->
    <g transform="translate(298.844 241.468375) scale(0.08 -0.08)">
     <use xlink:href="#DejaVuSans-4e"/>
     <use xlink:href="#DejaVuSans-75" x="74.804688"/>
     <use xlink:href="#DejaVuSans-6d" x="138.183594"/>
     <use xlink:href="#DejaVuSans-62" x="235.595703"/>
     <use xlink:href="#DejaVuSans-65" x="299.072266"/>
     <use xlink:href="#DejaVuSans-72" x="360.595703"/>
     <use xlink:href="#DejaVuSans-20" x="401.708984"/>
     <use xlink:href="#DejaVuSans-6f" x="433.496094"/>
     <use xlink:href="#DejaVuSans-66" x="494.677734"/>
     <use xlink:href="#DejaVuSans-20" x="529.882812"/>
     <use xlink:href="#DejaVuSans-73" x="561.669922"/>
     <use xlink:href="#DejaVuSans-74" x="613.769531"/>
     <use xlink:href="#DejaVuSans-61" x="652.978516"/>
     <use xlink:href="#DejaVuSans-72" x="714.257812"/>
     <use xlink:href="#DejaVuSans-74" x="755.371094"/>
     <use xlink:href="#DejaVuSans-69" x="794.580078"/>
     <use xlink:href="#DejaVuSans-6e" x="822.363281"/>
     <use xlink:href="#DejaVuSans-67" x="885.742188"/>
     <use xlink:href="#DejaVuSans-20" x="949.21875"/>
     <use xlink:href="#DejaVuSans-62" x="981.005859"/>
     <use xlink:href="#DejaVuSans-6f" x="1044.482422"/>
     <use xlink:href="#DejaVuSans-74" x="1105.664062"/>
     <use xlink:href="#DejaVuSans-73" x="1144.873047"/>
     <use xlink:href="#DejaVuSans-3a" x="1196.972656"/>
     <use xlink:href="#DejaVuSans-20" x="1230.664062"/>
     <use xlink:href="#DejaVuSans-35" x="1262.451172"/>
     <use xlink:href="#DejaVuSans-30" x="1326.074219"/>
    </g>
    <!-- Velocity: 5 -->
    <g transform="translate(298.844 250.426625) scale(0.08 -0.08)">
     <defs>
      <path id="DejaVuSans-56" d="M 1831 0 
L 50 4666 
L 709 4666 
L 2188 738 
L 3669 4666 
L 4325 4666 
L 2547 0 
L 1831 0 
z
" transform="scale(0.015625)"/>
     </defs>
     <use xlink:href="#DejaVuSans-56"/>
     <use xlink:href="#DejaVuSans-65" x="60.658203"/>
     <use xlink:href="#DejaVuSans-6c" x="122.181641"/>
     <use xlink:href="#DejaVuSans-6f" x="149.964844"/>
     <use xlink:href="#DejaVuSans-63" x="211.146484"/>
     <use xlink:href="#DejaVuSans-69" x="266.126953"/>
     <use xlink:href="#DejaVuSans-74" x="293.910156"/>
     <use xlink:href="#DejaVuSans-79" x="333.119141"/>
     <use xlink:href="#DejaVuSans-3a" x="385.048828"/>
     <use xlink:href="#DejaVuSans-20" x="418.740234"/>
     <use xlink:href="#DejaVuSans-35" x="450.527344"/>
    </g>
    <!-- Delta: 0.1 -->
    <g transform="translate(298.844 259.384875) scale(0.08 -0.08)">
     <defs>
      <path id="DejaVuSans-2e" d="M 684 794 
L 1344 794 
L 1344 0 
L 684 0 
L 684 794 
z
" transform="scale(0.015625)"/>
     </defs>
     <use xlink:href="#DejaVuSans-44"/>
     <use xlink:href="#DejaVuSans-65" x="77.001953"/>
     <use xlink:href="#DejaVuSans-6c" x="138.525391"/>
     <use xlink:href="#DejaVuSans-74" x="166.308594"/>
     <use xlink:href="#DejaVuSans-61" x="205.517578"/>
     <use xlink:href="#DejaVuSans-3a" x="266.796875"/>
     <use xlink:href="#DejaVuSans-20" x="300.488281"/>
     <use xlink:href="#DejaVuSans-30" x="332.275391"/>
     <use xlink:href="#DejaVuSans-2e" x="395.898438"/>
     <use xlink:href="#DejaVuSans-31" x="427.685547"/>
    </g>
    <!-- Alpha: 10 -->
    <g transform="translate(298.844 268.343125) scale(0.08 -0.08)">
     <defs>
      <path id="DejaVuSans-41" d="M 2188 4044 
L 1331 1722 
L 3047 1722 
L 2188 4044 
z
M 1831 4666 
L 2547 4666 
L 4325 0 
L 3669 0 
L 3244 1197 
L 1141 1197 
L 716 0 
L 50 0 
L 1831 4666 
z
" transform="scale(0.015625)"/>
     </defs>
     <use xlink:href="#DejaVuSans-41"/>
     <use xlink:href="#DejaVuSans-6c" x="68.408203"/>
     <use xlink:href="#DejaVuSans-70" x="96.191406"/>
     <use xlink:href="#DejaVuSans-68" x="159.667969"/>
     <use xlink:href="#DejaVuSans-61" x="223.046875"/>
     <use xlink:href="#DejaVuSans-3a" x="284.326172"/>
     <use xlink:href="#DejaVuSans-20" x="318.017578"/>
     <use xlink:href="#DejaVuSans-31" x="349.804688"/>
     <use xlink:href="#DejaVuSans-30" x="413.427734"/>
    </g>
    <!-- Maximum hop count: 99 -->
    <g transform="translate(298.844 277.301375) scale(0.08 -0.08)">
     <defs>
      <path id="DejaVuSans-4d" d="M 628 4666 
L 1569 4666 
L 2759 1491 
L 3956 4666 
L 4897 4666 
L 4897 0 
L 4281 0 
L 4281 4097 
L 3078 897 
L 2444 897 
L 1241 4097 
L 1241 0 
L 628 0 
L 628 4666 
z
" transform="scale(0.015625)"/>
      <path id="DejaVuSans-39" d="M 703 97 
L 703 672 
Q 941 559 1184 500 
Q 1428 441 1663 441 
Q 2288 441 2617 861 
Q 2947 1281 2994 2138 
Q 2813 1869 2534 1725 
Q 2256 1581 1919 1581 
Q 1219 1581 811 2004 
Q 403 2428 403 3163 
Q 403 3881 828 4315 
Q 1253 4750 1959 4750 
Q 2769 4750 3195 4129 
Q 3622 3509 3622 2328 
Q 3622 1225 3098 567 
Q 2575 -91 1691 -91 
Q 1453 -91 1209 -44 
Q 966 3 703 97 
z
M 1959 2075 
Q 2384 2075 2632 2365 
Q 2881 2656 2881 3163 
Q 2881 3666 2632 3958 
Q 2384 4250 1959 4250 
Q 1534 4250 1286 3958 
Q 1038 3666 1038 3163 
Q 1038 2656 1286 2365 
Q 1534 2075 1959 2075 
z
" transform="scale(0.015625)"/>
     </defs>
     <use xlink:href="#DejaVuSans-4d"/>
     <use xlink:href="#DejaVuSans-61" x="86.279297"/>
     <use xlink:href="#DejaVuSans-78" x="147.558594"/>
     <use xlink:href="#DejaVuSans-69" x="206.738281"/>
     <use xlink:href="#DejaVuSans-6d" x="234.521484"/>
     <use xlink:href="#DejaVuSans-75" x="331.933594"/>
     <use xlink:href="#DejaVuSans-6d" x="395.3125"/>
     <use xlink:href="#DejaVuSans-20" x="492.724609"/>
     <use xlink:href="#DejaVuSans-68" x="524.511719"/>
     <use xlink:href="#DejaVuSans-6f" x="587.890625"/>
     <use xlink:href="#DejaVuSans-70" x="649.072266"/>
     <use xlink:href="#DejaVuSans-20" x="712.548828"/>
     <use xlink:href="#DejaVuSans-63" x="744.335938"/>
     <use xlink:href="#DejaVuSans-6f" x="799.316406"/>
     <use xlink:href="#DejaVuSans-75" x="860.498047"/>
     <use xlink:href="#DejaVuSans-6e" x="923.876953"/>
     <use xlink:href="#DejaVuSans-74" x="987.255859"/>
     <use xlink:href="#DejaVuSans-3a" x="1026.464844"/>
     <use xlink:href="#DejaVuSans-20" x="1060.15625"/>
     <use xlink:href="#DejaVuSans-39" x="1091.943359"/>
     <use xlink:href="#DejaVuSans-39" x="1155.566406"/>
    </g>
    <!-- Forgetting enabled: true -->
    <g transform="translate(298.844 286.259625) scale(0.08 -0.08)">
     <defs>
      <path id="DejaVuSans-46" d="M 628 4666 
L 3309 4666 
L 3309 4134 
L 1259 4134 
L 1259 2759 
L 3109 2759 
L 3109 2228 
L 1259 2228 
L 1259 0 
L 628 0 
L 628 4666 
z
" transform="scale(0.015625)"/>
     </defs>
     <use xlink:href="#DejaVuSans-46"/>
     <use xlink:href="#DejaVuSans-6f" x="53.894531"/>
     <use xlink:href="#DejaVuSans-72" x="115.076172"/>
     <use xlink:href="#DejaVuSans-67" x="154.439453"/>
     <use xlink:href="#DejaVuSans-65" x="217.916016"/>
     <use xlink:href="#DejaVuSans-74" x="279.439453"/>
     <use xlink:href="#DejaVuSans-74" x="318.648438"/>
     <use xlink:href="#DejaVuSans-69" x="357.857422"/>
     <use xlink:href="#DejaVuSans-6e" x="385.640625"/>
     <use xlink:href="#DejaVuSans-67" x="449.019531"/>
     <use xlink:href="#DejaVuSans-20" x="512.496094"/>
     <use xlink:href="#DejaVuSans-65" x="544.283203"/>
     <use xlink:href="#DejaVuSans-6e" x="605.806641"/>
     <use xlink:href="#DejaVuSans-61" x="669.185547"/>
     <use xlink:href="#DejaVuSans-62" x="730.464844"/>
     <use xlink:href="#DejaVuSans-6c" x="793.941406"/>
     <use xlink:href="#DejaVuSans-65" x="821.724609"/>
     <use xlink:href="#DejaVuSans-64" x="883.248047"/>
     <use xlink:href="#DejaVuSans-3a" x="946.724609"/>
     <use xlink:href="#DejaVuSans-20" x="980.416016"/>
     <use xlink:href="#DejaVuSans-74" x="1012.203125"/>
     <use xlink:href="#DejaVuSans-72" x="1051.412109"/>
     <use xlink:href="#DejaVuSans-75" x="1092.525391"/>
     <use xlink:href="#DejaVuSans-65" x="1155.904297"/>
    </g>
    <!-- Time between forgetting: 500timesteps -->
    <g transform="translate(298.844 295.217875) scale(0.08 -0.08)">
     <defs>
      <path id="DejaVuSans-77" d="M 269 3500 
L 844 3500 
L 1563 769 
L 2278 3500 
L 2956 3500 
L 3675 769 
L 4391 3500 
L 4966 3500 
L 4050 0 
L 3372 0 
L 2619 2869 
L 1863 0 
L 1184 0 
L 269 3500 
z
" transform="scale(0.015625)"/>
     </defs>
     <use xlink:href="#DejaVuSans-54"/>
     <use xlink:href="#DejaVuSans-69" x="57.958984"/>
     <use xlink:href="#DejaVuSans-6d" x="85.742188"/>
     <use xlink:href="#DejaVuSans-65" x="183.154297"/>
     <use xlink:href="#DejaVuSans-20" x="244.677734"/>
     <use xlink:href="#DejaVuSans-62" x="276.464844"/>
     <use xlink:href="#DejaVuSans-65" x="339.941406"/>
     <use xlink:href="#DejaVuSans-74" x="401.464844"/>
     <use xlink:href="#DejaVuSans-77" x="440.673828"/>
     <use xlink:href="#DejaVuSans-65" x="522.460938"/>
     <use xlink:href="#DejaVuSans-65" x="583.984375"/>
     <use xlink:href="#DejaVuSans-6e" x="645.507812"/>
     <use xlink:href="#DejaVuSans-20" x="708.886719"/>
     <use xlink:href="#DejaVuSans-66" x="740.673828"/>
     <use xlink:href="#DejaVuSans-6f" x="775.878906"/>
     <use xlink:href="#DejaVuSans-72" x="837.060547"/>
     <use xlink:href="#DejaVuSans-67" x="876.423828"/>
     <use xlink:href="#DejaVuSans-65" x="939.900391"/>
     <use xlink:href="#DejaVuSans-74" x="1001.423828"/>
     <use xlink:href="#DejaVuSans-74" x="1040.632812"/>
     <use xlink:href="#DejaVuSans-69" x="1079.841797"/>
     <use xlink:href="#DejaVuSans-6e" x="1107.625"/>
     <use xlink:href="#DejaVuSans-67" x="1171.003906"/>
     <use xlink:href="#DejaVuSans-3a" x="1234.480469"/>
     <use xlink:href="#DejaVuSans-20" x="1268.171875"/>
     <use xlink:href="#DejaVuSans-35" x="1299.958984"/>
     <use xlink:href="#DejaVuSans-30" x="1363.582031"/>
     <use xlink:href="#DejaVuSans-30" x="1427.205078"/>
     <use xlink:href="#DejaVuSans-74" x="1490.828125"/>
     <use xlink:href="#DejaVuSans-69" x="1530.037109"/>
     <use xlink:href="#DejaVuSans-6d" x="1557.820312"/>
     <use xlink:href="#DejaVuSans-65" x="1655.232422"/>
     <use xlink:href="#DejaVuSans-73" x="1716.755859"/>
     <use xlink:href="#DejaVuSans-74" x="1768.855469"/>
     <use xlink:href="#DejaVuSans-65" x="1808.064453"/>
     <use xlink:href="#DejaVuSans-70" x="1869.587891"/>
     <use xlink:href="#DejaVuSans-73" x="1933.064453"/>
    </g>
    <!--  -->
    <g transform="translate(298.844 304.176125) scale(0.08 -0.08)"/>
   </g>
   <g id="text_16">
    <!-- Num bots in target agent's zone at end of simulation -->
    <g transform="translate(6.9175 19.44) scale(0.12 -0.12)">
     <defs>
      <path id="DejaVuSans-27" d="M 1147 4666 
L 1147 2931 
L 616 2931 
L 616 4666 
L 1147 4666 
z
" transform="scale(0.015625)"/>
     </defs>
     <use xlink:href="#DejaVuSans-4e"/>
     <use xlink:href="#DejaVuSans-75" x="74.804688"/>
     <use xlink:href="#DejaVuSans-6d" x="138.183594"/>
     <use xlink:href="#DejaVuSans-20" x="235.595703"/>
     <use xlink:href="#DejaVuSans-62" x="267.382812"/>
     <use xlink:href="#DejaVuSans-6f" x="330.859375"/>
     <use xlink:href="#DejaVuSans-74" x="392.041016"/>
     <use xlink:href="#DejaVuSans-73" x="431.25"/>
     <use xlink:href="#DejaVuSans-20" x="483.349609"/>
     <use xlink:href="#DejaVuSans-69" x="515.136719"/>
     <use xlink:href="#DejaVuSans-6e" x="542.919922"/>
     <use xlink:href="#DejaVuSans-20" x="606.298828"/>
     <use xlink:href="#DejaVuSans-74" x="638.085938"/>
     <use xlink:href="#DejaVuSans-61" x="677.294922"/>
     <use xlink:href="#DejaVuSans-72" x="738.574219"/>
     <use xlink:href="#DejaVuSans-67" x="777.9375"/>
     <use xlink:href="#DejaVuSans-65" x="841.414062"/>
     <use xlink:href="#DejaVuSans-74" x="902.9375"/>
     <use xlink:href="#DejaVuSans-20" x="942.146484"/>
     <use xlink:href="#DejaVuSans-61" x="973.933594"/>
     <use xlink:href="#DejaVuSans-67" x="1035.212891"/>
     <use xlink:href="#DejaVuSans-65" x="1098.689453"/>
     <use xlink:href="#DejaVuSans-6e" x="1160.212891"/>
     <use xlink:href="#DejaVuSans-74" x="1223.591797"/>
     <use xlink:href="#DejaVuSans-27" x="1262.800781"/>
     <use xlink:href="#DejaVuSans-73" x="1290.291016"/>
     <use xlink:href="#DejaVuSans-20" x="1342.390625"/>
     <use xlink:href="#DejaVuSans-7a" x="1374.177734"/>
     <use xlink:href="#DejaVuSans-6f" x="1426.667969"/>
     <use xlink:href="#DejaVuSans-6e" x="1487.849609"/>
     <use xlink:href="#DejaVuSans-65" x="1551.228516"/>
     <use xlink:href="#DejaVuSans-20" x="1612.751953"/>
     <use xlink:href="#DejaVuSans-61" x="1644.539062"/>
     <use xlink:href="#DejaVuSans-74" x="1705.818359"/>
     <use xlink:href="#DejaVuSans-20" x="1745.027344"/>
     <use xlink:href="#DejaVuSans-65" x="1776.814453"/>
     <use xlink:href="#DejaVuSans-6e" x="1838.337891"/>
     <use xlink:href="#DejaVuSans-64" x="1901.716797"/>
     <use xlink:href="#DejaVuSans-20" x="1965.193359"/>
     <use xlink:href="#DejaVuSans-6f" x="1996.980469"/>
     <use xlink:href="#DejaVuSans-66" x="2058.162109"/>
     <use xlink:href="#DejaVuSans-20" x="2093.367188"/>
     <use xlink:href="#DejaVuSans-73" x="2125.154297"/>
     <use xlink:href="#DejaVuSans-69" x="2177.253906"/>
     <use xlink:href="#DejaVuSans-6d" x="2205.037109"/>
     <use xlink:href="#DejaVuSans-75" x="2302.449219"/>
     <use xlink:href="#DejaVuSans-6c" x="2365.828125"/>
     <use xlink:href="#DejaVuSans-61" x="2393.611328"/>
     <use xlink:href="#DejaVuSans-74" x="2454.890625"/>
     <use xlink:href="#DejaVuSans-69" x="2494.099609"/>
     <use xlink:href="#DejaVuSans-6f" x="2521.882812"/>
     <use xlink:href="#DejaVuSans-6e" x="2583.064453"/>
    </g>
   </g>
   <g id="legend_1">
    <g id="patch_7">
     <path d="M 51.66 106.830625 
L 112.5475 106.830625 
Q 114.5475 106.830625 114.5475 104.830625 
L 114.5475 32.44 
Q 114.5475 30.44 112.5475 30.44 
L 51.66 30.44 
Q 49.66 30.44 49.66 32.44 
L 49.66 104.830625 
Q 49.66 106.830625 51.66 106.830625 
z
" style="fill: #ffffff; opacity: 0.8; stroke: #cccccc; stroke-linejoin: miter"/>
    </g>
    <g id="line2d_30">
     <path d="M 53.66 38.538437 
L 63.66 38.538437 
L 73.66 38.538437 
" style="fill: none; stroke: #1f77b4; stroke-width: 1.5; stroke-linecap: square"/>
    </g>
    <g id="text_17">
     <!-- data1 -->
     <g transform="translate(81.66 42.038437) scale(0.1 -0.1)">
      <use xlink:href="#DejaVuSans-64"/>
      <use xlink:href="#DejaVuSans-61" x="63.476562"/>
      <use xlink:href="#DejaVuSans-74" x="124.755859"/>
      <use xlink:href="#DejaVuSans-61" x="163.964844"/>
      <use xlink:href="#DejaVuSans-31" x="225.244141"/>
     </g>
    </g>
    <g id="line2d_31">
     <path d="M 53.66 53.216562 
L 63.66 53.216562 
L 73.66 53.216562 
" style="fill: none; stroke: #ff7f0e; stroke-width: 1.5; stroke-linecap: square"/>
    </g>
    <g id="text_18">
     <!-- data2 -->
     <g transform="translate(81.66 56.716562) scale(0.1 -0.1)">
      <use xlink:href="#DejaVuSans-64"/>
      <use xlink:href="#DejaVuSans-61" x="63.476562"/>
      <use xlink:href="#DejaVuSans-74" x="124.755859"/>
      <use xlink:href="#DejaVuSans-61" x="163.964844"/>
      <use xlink:href="#DejaVuSans-32" x="225.244141"/>
     </g>
    </g>
    <g id="line2d_32">
     <path d="M 53.66 67.894687 
L 63.66 67.894687 
L 73.66 67.894687 
" style="fill: none; stroke: #2ca02c; stroke-width: 1.5; stroke-linecap: square"/>
    </g>
    <g id="text_19">
     <!-- data3 -->
     <g transform="translate(81.66 71.394687) scale(0.1 -0.1)">
      <use xlink:href="#DejaVuSans-64"/>
      <use xlink:href="#DejaVuSans-61" x="63.476562"/>
      <use xlink:href="#DejaVuSans-74" x="124.755859"/>
      <use xlink:href="#DejaVuSans-61" x="163.964844"/>
      <use xlink:href="#DejaVuSans-33" x="225.244141"/>
     </g>
    </g>
    <g id="line2d_33">
     <path d="M 53.66 82.572812 
L 63.66 82.572812 
L 73.66 82.572812 
" style="fill: none; stroke: #d62728; stroke-width: 1.5; stroke-linecap: square"/>
    </g>
    <g id="text_20">
     <!-- data4 -->
     <g transform="translate(81.66 86.072812) scale(0.1 -0.1)">
      <use xlink:href="#DejaVuSans-64"/>
      <use xlink:href="#DejaVuSans-61" x="63.476562"/>
      <use xlink:href="#DejaVuSans-74" x="124.755859"/>
      <use xlink:href="#DejaVuSans-61" x="163.964844"/>
      <use xlink:href="#DejaVuSans-34" x="225.244141"/>
     </g>
    </g>
    <g id="line2d_34">
     <path d="M 53.66 97.250937 
L 63.66 97.250937 
L 73.66 97.250937 
" style="fill: none; stroke: #9467bd; stroke-width: 1.5; stroke-linecap: square"/>
    </g>
    <g id="text_21">
     <!-- data5 -->
     <g transform="translate(81.66 100.750937) scale(0.1 -0.1)">
      <use xlink:href="#DejaVuSans-64"/>
      <use xlink:href="#DejaVuSans-61" x="63.476562"/>
      <use xlink:href="#DejaVuSans-74" x="124.755859"/>
      <use xlink:href="#DejaVuSans-61" x="163.964844"/>
      <use xlink:href="#DejaVuSans-35" x="225.244141"/>
     </g>
    </g>
   </g>
  </g>
 </g>
 <defs>
  <clipPath id="p40e4c8c6be">
   <rect x="44.66" y="25.44" width="242.08" height="436.6"/>
  </clipPath>
 </defs>
</svg>
